<svg width="512" height="512" xmlns="http://www.w3.org/2000/svg">
<polygon points="466.064,233.502 512,210.816 512,275.961 495.895,272.216 458.621,241.056 " stroke="black" fill="none" stroke-width="1" />
<polygon points="388.694,155.957 400.569,199.277 385.138,213.438 375.74,216.827 349.189,210.502 377.295,158.277 385.383,155.053 " stroke="black" fill="none" stroke-width="1" />
<polygon points="0,309.848 47.7509,316.917 48.6868,343.574 13.6059,352.659 0,345.127 " stroke="black" fill="none" stroke-width="1" />
<polygon points="512,443.11 512,512 476.405,512 " stroke="black" fill="none" stroke-width="1" />
<polygon points="0,472.666 54.6343,455.718 55.3912,457.563 51.553,483.745 0,492.798 " stroke="black" fill="none" stroke-width="1" />
<polygon points="254.154,457.195 265.625,434.01 277.021,455.028 277.088,456.406 254.155,457.196 " stroke="black" fill="none" stroke-width="1" />
<polygon points="120.006,77.675 147.971,8.01484 214.483,65.4229 200.399,107.607 " stroke="black" fill="none" stroke-width="1" />
<polygon points="277.021,455.028 317.478,431.61 345.04,441.941 347.801,458.026 287.95,507.829 277.088,456.406 " stroke="black" fill="none" stroke-width="1" />
<polygon points="265.109,160.952 286.144,128.335 289.087,126.821 337.57,142.98 346.202,157.348 331.655,169.101 266.567,172.93 " stroke="black" fill="none" stroke-width="1" />
<polygon points="463.348,352.408 469.476,319.076 512,307.131 512,398.572 508.448,398.461 " stroke="black" fill="none" stroke-width="1" />
<polygon points="331.655,169.101 346.202,157.348 377.295,158.277 349.189,210.502 347.745,210.93 " stroke="black" fill="none" stroke-width="1" />
<polygon points="383.327,102.756 423.99,113.076 427.583,119.825 422.752,143.281 388.694,155.957 385.383,155.053 374.694,128.612 " stroke="black" fill="none" stroke-width="1" />
<polygon points="264.896,180.625 266.408,220.225 244.296,247.773 209.39,257.429 194.797,254.393 173.679,230.19 149.427,190.521 149.111,176.958 " stroke="black" fill="none" stroke-width="1" />
<polygon points="401.175,348.505 400.625,342.468 407.61,327.892 416.031,326.745 455.658,352.426 412.472,378.66 " stroke="black" fill="none" stroke-width="1" />
<polygon points="165.03,364.37 168.871,360.528 204.456,356.755 195.956,456.737 154.775,439.584 " stroke="black" fill="none" stroke-width="1" />
<polygon points="214.483,65.4229 249.529,51.6004 286.144,128.335 265.109,160.952 200.685,113.182 200.399,107.607 " stroke="black" fill="none" stroke-width="1" />
<polygon points="130.769,249.038 173.679,230.19 194.797,254.393 157.457,283.953 126.421,272.268 " stroke="black" fill="none" stroke-width="1" />
<polygon points="59.0631,361.422 78.4144,344.841 106.833,351.764 112.424,366.139 75.413,398.652 59.9562,375.56 " stroke="black" fill="none" stroke-width="1" />
<polygon points="132.647,434.649 146.637,441.676 119.583,484.887 76.2852,463.329 " stroke="black" fill="none" stroke-width="1" />
<polygon points="261.748,277.905 244.296,247.773 266.408,220.225 321.075,233.75 332.899,252.085 305.138,314.868 " stroke="black" fill="none" stroke-width="1" />
<polygon points="113.067,315.691 106.339,328.219 81.1263,330.9 58.3413,308.751 72.4448,282.805 80.3995,275.728 " stroke="black" fill="none" stroke-width="1" />
<polygon points="75.2032,405.34 75.413,398.652 112.424,366.139 130.052,367.776 119.146,425.394 " stroke="black" fill="none" stroke-width="1" />
<polygon points="57.2105,50.3781 113.505,83.6555 109.869,94.6593 56.5251,108.196 51.2517,103.121 40.3384,77.0224 " stroke="black" fill="none" stroke-width="1" />
<polygon points="0,345.127 13.6059,352.659 25.4331,374.187 0,402.425 " stroke="black" fill="none" stroke-width="1" />
<polygon points="512,54.3093 512,81.5476 486.395,68.8772 " stroke="black" fill="none" stroke-width="1" />
<polygon points="204.456,356.755 208.482,355.507 226.75,433.282 222.883,436.775 196.086,456.821 195.956,456.737 " stroke="black" fill="none" stroke-width="1" />
<polygon points="56.0395,119.575 114.779,155.601 72.157,172.158 45.5797,145.885 " stroke="black" fill="none" stroke-width="1" />
<polygon points="47.7509,316.917 58.3413,308.751 81.1263,330.9 78.4144,344.841 59.0631,361.422 48.6868,343.574 " stroke="black" fill="none" stroke-width="1" />
<polygon points="379.918,275.805 414.493,262.298 430.506,259.75 443.35,291.201 416.031,326.745 407.61,327.892 387.9,306.551 " stroke="black" fill="none" stroke-width="1" />
<polygon points="196.953,459.479 236.779,496.554 249.748,512 171.867,512 " stroke="black" fill="none" stroke-width="1" />
<polygon points="106.833,351.764 106.339,328.219 113.067,315.691 146.097,313.455 168.871,360.528 165.03,364.37 130.052,367.776 112.424,366.139 " stroke="black" fill="none" stroke-width="1" />
<polygon points="459.862,302.418 495.895,272.216 512,275.961 512,307.131 469.476,319.076 " stroke="black" fill="none" stroke-width="1" />
<polygon points="458.621,241.056 495.895,272.216 459.862,302.418 443.35,291.201 430.506,259.75 441.745,245.072 " stroke="black" fill="none" stroke-width="1" />
<polygon points="95.5906,244.771 130.769,249.038 126.421,272.268 83.4094,266.1 82.9665,262.198 " stroke="black" fill="none" stroke-width="1" />
<polygon points="321.075,233.75 347.745,210.93 349.189,210.502 375.74,216.827 379.592,275.698 372.781,275.488 332.899,252.085 " stroke="black" fill="none" stroke-width="1" />
<polygon points="0,271.707 72.4448,282.805 58.3413,308.751 47.7509,316.917 0,309.848 " stroke="black" fill="none" stroke-width="1" />
<polygon points="0,492.798 51.553,483.745 57.0409,512 0,512 " stroke="black" fill="none" stroke-width="1" />
<polygon points="264.896,180.625 266.567,172.93 331.655,169.101 347.745,210.93 321.075,233.75 266.408,220.225 " stroke="black" fill="none" stroke-width="1" />
<polygon points="196.086,456.821 222.883,436.775 254.154,457.195 254.155,457.196 236.779,496.554 196.953,459.479 " stroke="black" fill="none" stroke-width="1" />
<polygon points="55.3912,457.563 76.2852,463.329 119.583,484.887 119.026,512 57.0409,512 51.553,483.745 " stroke="black" fill="none" stroke-width="1" />
<polygon points="317.389,360.317 353.743,384.597 363.481,402.869 345.04,441.941 317.478,431.61 296.296,415.287 303.809,372.459 " stroke="black" fill="none" stroke-width="1" />
<polygon points="254.354,378.977 303.809,372.459 296.296,415.287 260.656,421.459 258.847,420.532 " stroke="black" fill="none" stroke-width="1" />
<polygon points="446.142,438.087 446.437,437.027 508.448,398.461 512,398.572 512,443.11 476.405,512 452.35,512 " stroke="black" fill="none" stroke-width="1" />
<polygon points="454.987,165.318 459.855,165.696 466.064,233.502 458.621,241.056 441.745,245.072 425.684,210.082 " stroke="black" fill="none" stroke-width="1" />
<polygon points="64.7191,189.437 104.633,224.844 95.5906,244.771 82.9665,262.198 69.5451,251.106 45.0607,206.176 " stroke="black" fill="none" stroke-width="1" />
<polygon points="0,121.911 51.2517,103.121 56.5251,108.196 56.0395,119.575 45.5797,145.885 0,152.662 " stroke="black" fill="none" stroke-width="1" />
<polygon points="446.949,110.999 468.359,85.2329 498.185,135.75 " stroke="black" fill="none" stroke-width="1" />
<polygon points="454.987,165.318 422.752,143.281 427.583,119.825 446.949,110.999 498.185,135.75 512,150.528 512,154.351 459.855,165.696 " stroke="black" fill="none" stroke-width="1" />
<polygon points="359.335,0 409.554,0 423.99,113.076 383.327,102.756 " stroke="black" fill="none" stroke-width="1" />
<polygon points="352.339,0 359.335,0 383.327,102.756 374.694,128.612 343.646,112.855 328.354,91.6741 " stroke="black" fill="none" stroke-width="1" />
<polygon points="289.087,126.821 328.354,91.6741 343.646,112.855 337.57,142.98 " stroke="black" fill="none" stroke-width="1" />
<polygon points="401.175,348.505 412.472,378.66 404.594,399.598 363.481,402.869 353.743,384.597 360.294,373.713 " stroke="black" fill="none" stroke-width="1" />
<polygon points="208.754,355.35 232.571,357.161 254.354,378.977 258.847,420.532 226.75,433.282 208.482,355.507 " stroke="black" fill="none" stroke-width="1" />
<polygon points="423.99,113.076 409.554,0 427.71,0 470.465,64.4989 468.359,85.2329 446.949,110.999 427.583,119.825 " stroke="black" fill="none" stroke-width="1" />
<polygon points="310.382,325.962 313.046,328.231 317.389,360.317 303.809,372.459 254.354,378.977 232.571,357.161 245.536,345.299 " stroke="black" fill="none" stroke-width="1" />
<polygon points="200.685,113.182 265.109,160.952 266.567,172.93 264.896,180.625 149.111,176.958 146.385,167.825 " stroke="black" fill="none" stroke-width="1" />
<polygon points="400.569,199.277 425.684,210.082 441.745,245.072 430.506,259.75 414.493,262.298 385.138,213.438 " stroke="black" fill="none" stroke-width="1" />
<polygon points="0,0 56.6647,0 53.0847,9.98019 0,38.9908 " stroke="black" fill="none" stroke-width="1" />
<polygon points="157.457,283.953 146.097,313.455 113.067,315.691 80.3995,275.728 83.4094,266.1 126.421,272.268 " stroke="black" fill="none" stroke-width="1" />
<polygon points="132.647,434.649 119.146,425.394 130.052,367.776 165.03,364.37 154.775,439.584 146.637,441.676 " stroke="black" fill="none" stroke-width="1" />
<polygon points="374.694,128.612 385.383,155.053 377.295,158.277 346.202,157.348 337.57,142.98 343.646,112.855 " stroke="black" fill="none" stroke-width="1" />
<polygon points="277.088,456.406 287.95,507.829 285.745,512 249.748,512 236.779,496.554 254.155,457.196 " stroke="black" fill="none" stroke-width="1" />
<polygon points="56.6647,0 145.869,0 147.971,8.01484 120.006,77.675 113.505,83.6555 57.2105,50.3781 53.0847,9.98019 " stroke="black" fill="none" stroke-width="1" />
<polygon points="375.74,216.827 385.138,213.438 414.493,262.298 379.918,275.805 379.592,275.698 " stroke="black" fill="none" stroke-width="1" />
<polygon points="317.478,431.61 277.021,455.028 265.625,434.01 260.656,421.459 296.296,415.287 " stroke="black" fill="none" stroke-width="1" />
<polygon points="54.6343,455.718 51.8869,432.96 75.2032,405.34 119.146,425.394 132.647,434.649 76.2852,463.329 55.3912,457.563 " stroke="black" fill="none" stroke-width="1" />
<polygon points="13.6059,352.659 48.6868,343.574 59.0631,361.422 59.9562,375.56 25.4331,374.187 " stroke="black" fill="none" stroke-width="1" />
<polygon points="0,152.662 45.5797,145.885 72.157,172.158 64.7191,189.437 45.0607,206.176 0,205.496 " stroke="black" fill="none" stroke-width="1" />
<polygon points="400.625,342.468 401.175,348.505 360.294,373.713 371.639,344.592 " stroke="black" fill="none" stroke-width="1" />
<polygon points="0,205.496 45.0607,206.176 69.5451,251.106 0,252.665 " stroke="black" fill="none" stroke-width="1" />
<polygon points="146.097,313.455 157.457,283.953 194.797,254.393 209.39,257.429 208.754,355.35 208.482,355.507 204.456,356.755 168.871,360.528 " stroke="black" fill="none" stroke-width="1" />
<polygon points="146.637,441.676 154.775,439.584 195.956,456.737 196.086,456.821 196.953,459.479 171.867,512 119.026,512 119.583,484.887 " stroke="black" fill="none" stroke-width="1" />
<polygon points="0,402.425 25.4331,374.187 59.9562,375.56 75.413,398.652 75.2032,405.34 51.8869,432.96 0,418.1 " stroke="black" fill="none" stroke-width="1" />
<polygon points="149.427,190.521 173.679,230.19 130.769,249.038 95.5906,244.771 104.633,224.844 " stroke="black" fill="none" stroke-width="1" />
<polygon points="222.883,436.775 226.75,433.282 258.847,420.532 260.656,421.459 265.625,434.01 254.154,457.195 " stroke="black" fill="none" stroke-width="1" />
<polygon points="362.023,468.379 446.142,438.087 452.35,512 386.589,512 " stroke="black" fill="none" stroke-width="1" />
<polygon points="388.694,155.957 422.752,143.281 454.987,165.318 425.684,210.082 400.569,199.277 " stroke="black" fill="none" stroke-width="1" />
<polygon points="299.401,0 352.339,0 328.354,91.6741 289.087,126.821 286.144,128.335 249.529,51.6004 " stroke="black" fill="none" stroke-width="1" />
<polygon points="416.031,326.745 443.35,291.201 459.862,302.418 469.476,319.076 463.348,352.408 455.658,352.426 " stroke="black" fill="none" stroke-width="1" />
<polygon points="64.7191,189.437 72.157,172.158 114.779,155.601 123.865,153.858 146.385,167.825 149.111,176.958 149.427,190.521 104.633,224.844 " stroke="black" fill="none" stroke-width="1" />
<polygon points="0,77.2099 40.3384,77.0224 51.2517,103.121 0,121.911 " stroke="black" fill="none" stroke-width="1" />
<polygon points="372.781,275.488 379.592,275.698 379.918,275.805 387.9,306.551 364.564,330.698 327.861,322.689 " stroke="black" fill="none" stroke-width="1" />
<polygon points="468.359,85.2329 470.465,64.4989 486.395,68.8772 512,81.5476 512,150.528 498.185,135.75 " stroke="black" fill="none" stroke-width="1" />
<polygon points="427.71,0 512,0 512,54.3093 486.395,68.8772 470.465,64.4989 " stroke="black" fill="none" stroke-width="1" />
<polygon points="327.861,322.689 364.564,330.698 371.639,344.592 360.294,373.713 353.743,384.597 317.389,360.317 313.046,328.231 " stroke="black" fill="none" stroke-width="1" />
<polygon points="387.9,306.551 407.61,327.892 400.625,342.468 371.639,344.592 364.564,330.698 " stroke="black" fill="none" stroke-width="1" />
<polygon points="147.971,8.01484 145.869,0 299.401,0 249.529,51.6004 214.483,65.4229 " stroke="black" fill="none" stroke-width="1" />
<polygon points="404.594,399.598 412.472,378.66 455.658,352.426 463.348,352.408 508.448,398.461 446.437,437.027 " stroke="black" fill="none" stroke-width="1" />
<polygon points="261.748,277.905 305.138,314.868 310.382,325.962 245.536,345.299 " stroke="black" fill="none" stroke-width="1" />
<polygon points="459.855,165.696 512,154.351 512,210.816 466.064,233.502 " stroke="black" fill="none" stroke-width="1" />
<polygon points="209.39,257.429 244.296,247.773 261.748,277.905 245.536,345.299 232.571,357.161 208.754,355.35 " stroke="black" fill="none" stroke-width="1" />
<polygon points="345.04,441.941 363.481,402.869 404.594,399.598 446.437,437.027 446.142,438.087 362.023,468.379 347.801,458.026 " stroke="black" fill="none" stroke-width="1" />
<polygon points="332.899,252.085 372.781,275.488 327.861,322.689 313.046,328.231 310.382,325.962 305.138,314.868 " stroke="black" fill="none" stroke-width="1" />
<polygon points="0,252.665 69.5451,251.106 82.9665,262.198 83.4094,266.1 80.3995,275.728 72.4448,282.805 0,271.707 " stroke="black" fill="none" stroke-width="1" />
<polygon points="0,418.1 51.8869,432.96 54.6343,455.718 0,472.666 " stroke="black" fill="none" stroke-width="1" />
<polygon points="0,38.9908 53.0847,9.98019 57.2105,50.3781 40.3384,77.0224 0,77.2099 " stroke="black" fill="none" stroke-width="1" />
<polygon points="56.0395,119.575 56.5251,108.196 109.869,94.6593 123.865,153.858 114.779,155.601 " stroke="black" fill="none" stroke-width="1" />
<polygon points="81.1263,330.9 106.339,328.219 106.833,351.764 78.4144,344.841 " stroke="black" fill="none" stroke-width="1" />
<polygon points="347.801,458.026 362.023,468.379 386.589,512 285.745,512 287.95,507.829 " stroke="black" fill="none" stroke-width="1" />
<polygon points="113.505,83.6555 120.006,77.675 200.399,107.607 200.685,113.182 146.385,167.825 123.865,153.858 109.869,94.6593 " stroke="black" fill="none" stroke-width="1" />
<circle cx="496.999" cy="246.393" r="2" fill="red" />
<circle cx="374.37" cy="195.089" r="2" fill="red" />
<circle cx="26.9723" cy="338.118" r="2" fill="red" />
<circle cx="502.061" cy="470.429" r="2" fill="red" />
<circle cx="18.917" cy="478.309" r="2" fill="red" />
<circle cx="257.147" cy="456.074" r="2" fill="red" />
<circle cx="162.709" cy="73.7398" r="2" fill="red" />
<circle cx="298.006" cy="454.088" r="2" fill="red" />
<circle cx="323.082" cy="149.734" r="2" fill="red" />
<circle cx="495.533" cy="331.329" r="2" fill="red" />
<circle cx="348.46" cy="181.145" r="2" fill="red" />
<circle cx="396.262" cy="114.884" r="2" fill="red" />
<circle cx="204.833" cy="194.601" r="2" fill="red" />
<circle cx="421.442" cy="351.742" r="2" fill="red" />
<circle cx="189.912" cy="404.443" r="2" fill="red" />
<circle cx="250.904" cy="103.186" r="2" fill="red" />
<circle cx="134.853" cy="255.66" r="2" fill="red" />
<circle cx="85.4664" cy="355.035" r="2" fill="red" />
<circle cx="100.782" cy="455.74" r="2" fill="red" />
<circle cx="304.516" cy="274.615" r="2" fill="red" />
<circle cx="86.7673" cy="319.047" r="2" fill="red" />
<circle cx="120.003" cy="394.35" r="2" fill="red" />
<circle cx="70.0047" cy="81.998" r="2" fill="red" />
<circle cx="8.54033" cy="371.411" r="2" fill="red" />
<circle cx="511.357" cy="58.0799" r="2" fill="red" />
<circle cx="209.066" cy="406.071" r="2" fill="red" />
<circle cx="72.1112" cy="138.909" r="2" fill="red" />
<circle cx="69.6867" cy="336.618" r="2" fill="red" />
<circle cx="414.51" cy="300.854" r="2" fill="red" />
<circle cx="199.797" cy="511.013" r="2" fill="red" />
<circle cx="125.085" cy="339.625" r="2" fill="red" />
<circle cx="485.53" cy="295.715" r="2" fill="red" />
<circle cx="470.629" cy="277.937" r="2" fill="red" />
<circle cx="126.956" cy="254.182" r="2" fill="red" />
<circle cx="364.667" cy="235.828" r="2" fill="red" />
<circle cx="34.0387" cy="290.386" r="2" fill="red" />
<circle cx="22.7266" cy="500.003" r="2" fill="red" />
<circle cx="325.451" cy="189.996" r="2" fill="red" />
<circle cx="248.462" cy="458.736" r="2" fill="red" />
<circle cx="84.7399" cy="487.958" r="2" fill="red" />
<circle cx="317.62" cy="401.757" r="2" fill="red" />
<circle cx="281.624" cy="395.443" r="2" fill="red" />
<circle cx="491.34" cy="464.889" r="2" fill="red" />
<circle cx="452.743" cy="202.785" r="2" fill="red" />
<circle cx="76.5532" cy="217.67" r="2" fill="red" />
<circle cx="30.9762" cy="122.555" r="2" fill="red" />
<circle cx="466.511" cy="111.302" r="2" fill="red" />
<circle cx="458.58" cy="127.72" r="2" fill="red" />
<circle cx="401.088" cy="95.8716" r="2" fill="red" />
<circle cx="364.738" cy="104.359" r="2" fill="red" />
<circle cx="329.798" cy="129.585" r="2" fill="red" />
<circle cx="387.857" cy="364.325" r="2" fill="red" />
<circle cx="231.018" cy="400.915" r="2" fill="red" />
<circle cx="441.702" cy="90.6868" r="2" fill="red" />
<circle cx="276.377" cy="355.627" r="2" fill="red" />
<circle cx="205.802" cy="164.013" r="2" fill="red" />
<circle cx="402.567" cy="225.817" r="2" fill="red" />
<circle cx="1.52605" cy="12.8884" r="2" fill="red" />
<circle cx="121.756" cy="290.446" r="2" fill="red" />
<circle cx="130.608" cy="396.357" r="2" fill="red" />
<circle cx="349.879" cy="133.636" r="2" fill="red" />
<circle cx="257.374" cy="462.67" r="2" fill="red" />
<circle cx="91.7304" cy="45.245" r="2" fill="red" />
<circle cx="388.5" cy="234.269" r="2" fill="red" />
<circle cx="289.121" cy="438.738" r="2" fill="red" />
<circle cx="96.1451" cy="446.628" r="2" fill="red" />
<circle cx="32.2244" cy="358.398" r="2" fill="red" />
<circle cx="38.4677" cy="172.941" r="2" fill="red" />
<circle cx="382.298" cy="355.309" r="2" fill="red" />
<circle cx="37.4716" cy="238.968" r="2" fill="red" />
<circle cx="180.211" cy="312.955" r="2" fill="red" />
<circle cx="154.529" cy="489.391" r="2" fill="red" />
<circle cx="30.9059" cy="391.554" r="2" fill="red" />
<circle cx="128.524" cy="241.253" r="2" fill="red" />
<circle cx="251.897" cy="453.477" r="2" fill="red" />
<circle cx="406.076" cy="472.051" r="2" fill="red" />
<circle cx="421.324" cy="182.218" r="2" fill="red" />
<circle cx="289.63" cy="84.7083" r="2" fill="red" />
<circle cx="441.151" cy="321.33" r="2" fill="red" />
<circle cx="94.7426" cy="197.166" r="2" fill="red" />
<circle cx="23.2715" cy="101.54" r="2" fill="red" />
<circle cx="362.241" cy="314.425" r="2" fill="red" />
<circle cx="492.66" cy="95.8632" r="2" fill="red" />
<circle cx="505.752" cy="48.2291" r="2" fill="red" />
<circle cx="355.59" cy="344.905" r="2" fill="red" />
<circle cx="380.602" cy="332.17" r="2" fill="red" />
<circle cx="215.271" cy="12.8411" r="2" fill="red" />
<circle cx="441.303" cy="384.437" r="2" fill="red" />
<circle cx="265.779" cy="320.088" r="2" fill="red" />
<circle cx="474.479" cy="200.795" r="2" fill="red" />
<circle cx="237.677" cy="313.328" r="2" fill="red" />
<circle cx="393.693" cy="437.663" r="2" fill="red" />
<circle cx="334.204" cy="287.743" r="2" fill="red" />
<circle cx="38.0388" cy="264.273" r="2" fill="red" />
<circle cx="12.2318" cy="456.758" r="2" fill="red" />
<circle cx="23.0425" cy="52.26" r="2" fill="red" />
<circle cx="80.8362" cy="124.683" r="2" fill="red" />
<circle cx="89.0359" cy="340.382" r="2" fill="red" />
<circle cx="342.668" cy="507.76" r="2" fill="red" />
<circle cx="149.813" cy="108.375" r="2" fill="red" />
</svg>