<svg width="512" height="512" xmlns="http://www.w3.org/2000/svg">
<polygon points="466.479,233.106 512,210.625 512,275.876 495.674,272.079 458.608,241.094 " stroke="black" fill="none" stroke-width="1" />
<polygon points="388.885,155.961 400.737,199.196 385.436,213.236 375.393,216.858 349.293,210.641 377.496,158.236 385.515,155.041 " stroke="black" fill="none" stroke-width="1" />
<polygon points="0,309.736 47.6067,316.784 48.5396,343.353 13.5239,352.421 0,344.934 " stroke="black" fill="none" stroke-width="1" />
<polygon points="512,438.049 512,512 473.79,512 " stroke="black" fill="none" stroke-width="1" />
<polygon points="0,472.365 54.6378,455.416 55.5617,457.668 51.7416,483.726 0,492.812 " stroke="black" fill="none" stroke-width="1" />
<polygon points="252.964,457.925 265.308,432.972 277.604,455.651 277.751,458.666 253.448,459.504 " stroke="black" fill="none" stroke-width="1" />
<polygon points="119.972,77.546 147.946,7.86452 214.529,65.3336 200.448,107.509 " stroke="black" fill="none" stroke-width="1" />
<polygon points="277.604,455.651 318.553,431.948 345.171,441.925 347.925,457.967 288.116,507.736 277.751,458.666 " stroke="black" fill="none" stroke-width="1" />
<polygon points="264.909,160.705 286.296,127.541 287.784,126.776 337.473,143.337 345.856,157.291 330.767,169.482 266.438,173.267 " stroke="black" fill="none" stroke-width="1" />
<polygon points="463.47,352.83 469.617,319.396 512,307.492 512,398.692 508.268,398.575 " stroke="black" fill="none" stroke-width="1" />
<polygon points="330.767,169.482 345.856,157.291 377.496,158.236 349.293,210.641 346.875,211.358 " stroke="black" fill="none" stroke-width="1" />
<polygon points="383.226,101.457 423.752,111.742 427.818,119.378 422.889,143.304 388.885,155.961 385.515,155.041 374.463,127.704 " stroke="black" fill="none" stroke-width="1" />
<polygon points="264.718,181.188 266.209,220.239 244.242,247.605 209.306,257.269 195.352,254.366 173.985,229.877 149.653,190.077 149.36,177.534 " stroke="black" fill="none" stroke-width="1" />
<polygon points="401.519,349.678 400.848,342.318 407.866,327.675 415.93,326.577 456.465,352.847 412.673,379.449 " stroke="black" fill="none" stroke-width="1" />
<polygon points="165.174,364.357 169.144,360.386 203.614,356.731 195.136,456.462 154.902,439.703 " stroke="black" fill="none" stroke-width="1" />
<polygon points="214.529,65.3336 249.948,51.3639 286.296,127.541 264.909,160.705 200.736,113.121 200.448,107.509 " stroke="black" fill="none" stroke-width="1" />
<polygon points="132.152,248.253 173.985,229.877 195.352,254.366 157.746,284.138 127.562,272.774 " stroke="black" fill="none" stroke-width="1" />
<polygon points="59.1546,361.611 78.0081,345.457 107.325,352.598 112.561,366.06 75.2706,398.819 60.0705,376.11 " stroke="black" fill="none" stroke-width="1" />
<polygon points="131.882,434.179 146.951,441.747 119.705,485.265 75.1171,463.064 " stroke="black" fill="none" stroke-width="1" />
<polygon points="261.276,277.016 244.242,247.605 266.209,220.239 320.731,233.728 332.364,251.768 304.804,314.097 " stroke="black" fill="none" stroke-width="1" />
<polygon points="113.236,315.725 106.802,327.705 80.926,330.456 58.3438,308.505 72.2724,282.88 80.4443,275.61 " stroke="black" fill="none" stroke-width="1" />
<polygon points="75.0634,405.424 75.2706,398.819 112.561,366.06 130.535,367.729 119.556,425.729 " stroke="black" fill="none" stroke-width="1" />
<polygon points="57.4939,49.8047 113.89,83.1418 110.125,94.534 56.5674,108.124 51.3965,103.148 40.387,76.8199 " stroke="black" fill="none" stroke-width="1" />
<polygon points="0,344.934 13.5239,352.421 25.7897,374.747 0,403.381 " stroke="black" fill="none" stroke-width="1" />
<polygon points="512,51.1943 512,81.9157 483.121,67.6251 " stroke="black" fill="none" stroke-width="1" />
<polygon points="203.614,356.731 208.671,355.164 208.692,355.171 226.962,432.954 221.827,437.593 195.918,456.974 195.136,456.462 " stroke="black" fill="none" stroke-width="1" />
<polygon points="56.0907,119.295 115.347,155.637 72.023,172.467 45.4105,146.159 " stroke="black" fill="none" stroke-width="1" />
<polygon points="47.6067,316.784 58.3438,308.505 80.926,330.456 78.0081,345.457 59.1546,361.611 48.5396,343.353 " stroke="black" fill="none" stroke-width="1" />
<polygon points="380.137,275.909 414.925,262.319 430.5,259.84 443.242,291.041 415.93,326.577 407.866,327.675 387.99,306.153 " stroke="black" fill="none" stroke-width="1" />
<polygon points="196.687,459.328 236.97,496.828 249.709,512 171.528,512 " stroke="black" fill="none" stroke-width="1" />
<polygon points="107.325,352.598 106.802,327.705 113.236,315.725 146.449,313.477 169.144,360.386 165.174,364.357 130.535,367.729 112.561,366.06 " stroke="black" fill="none" stroke-width="1" />
<polygon points="459.706,302.225 495.674,272.079 512,275.876 512,307.492 469.617,319.396 " stroke="black" fill="none" stroke-width="1" />
<polygon points="458.608,241.094 495.674,272.079 459.706,302.225 443.242,291.041 430.5,259.84 441.791,245.096 " stroke="black" fill="none" stroke-width="1" />
<polygon points="96.0018,243.867 132.152,248.253 127.562,272.774 83.3145,266.429 82.8192,262.065 " stroke="black" fill="none" stroke-width="1" />
<polygon points="320.731,233.728 346.875,211.358 349.293,210.641 375.393,216.858 379.237,275.614 372.655,275.41 332.364,251.768 " stroke="black" fill="none" stroke-width="1" />
<polygon points="0,271.809 72.2724,282.88 58.3438,308.505 47.6067,316.784 0,309.736 " stroke="black" fill="none" stroke-width="1" />
<polygon points="0,492.812 51.7416,483.726 57.2331,512 0,512 " stroke="black" fill="none" stroke-width="1" />
<polygon points="264.718,181.188 266.438,173.267 330.767,169.482 346.875,211.358 320.731,233.728 266.209,220.239 " stroke="black" fill="none" stroke-width="1" />
<polygon points="195.918,456.974 221.827,437.593 252.964,457.925 253.448,459.504 236.97,496.828 196.687,459.328 " stroke="black" fill="none" stroke-width="1" />
<polygon points="55.5617,457.668 75.1171,463.064 119.705,485.265 119.156,512 57.2331,512 51.7416,483.726 " stroke="black" fill="none" stroke-width="1" />
<polygon points="317.366,360.482 353.62,384.694 363.465,403.167 345.171,441.925 318.553,431.948 296.723,415.125 304.251,372.207 " stroke="black" fill="none" stroke-width="1" />
<polygon points="254.226,378.8 304.251,372.207 296.723,415.125 260.711,421.361 258.717,420.34 " stroke="black" fill="none" stroke-width="1" />
<polygon points="446.165,438.191 446.499,436.991 508.268,398.575 512,398.692 512,438.049 473.79,512 452.364,512 " stroke="black" fill="none" stroke-width="1" />
<polygon points="454.909,165.194 460.299,165.613 466.479,233.106 458.608,241.094 441.791,245.096 425.639,209.909 " stroke="black" fill="none" stroke-width="1" />
<polygon points="64.9005,189.013 104.823,224.428 96.0018,243.867 82.8192,262.065 69.3247,250.913 44.8818,206.059 " stroke="black" fill="none" stroke-width="1" />
<polygon points="0,121.992 51.3965,103.148 56.5674,108.124 56.0907,119.295 45.4105,146.159 0,152.911 " stroke="black" fill="none" stroke-width="1" />
<polygon points="445.544,111.298 468.109,84.1439 499.543,137.384 " stroke="black" fill="none" stroke-width="1" />
<polygon points="454.909,165.194 422.889,143.304 427.818,119.378 445.544,111.298 499.543,137.384 512,150.71 512,154.364 460.299,165.613 " stroke="black" fill="none" stroke-width="1" />
<polygon points="359.537,0 409.486,0 423.752,111.742 383.226,101.457 " stroke="black" fill="none" stroke-width="1" />
<polygon points="351.917,0 359.537,0 383.226,101.457 374.463,127.704 343.768,112.125 328.217,90.5854 " stroke="black" fill="none" stroke-width="1" />
<polygon points="287.784,126.776 328.217,90.5854 343.768,112.125 337.473,143.337 " stroke="black" fill="none" stroke-width="1" />
<polygon points="401.519,349.678 412.673,379.449 404.991,399.863 363.465,403.167 353.62,384.694 358.864,375.98 " stroke="black" fill="none" stroke-width="1" />
<polygon points="232.435,356.976 254.226,378.8 258.717,420.34 226.962,432.954 208.692,355.171 " stroke="black" fill="none" stroke-width="1" />
<polygon points="423.752,111.742 409.486,0 427.685,0 470.149,64.0597 468.109,84.1439 445.544,111.298 427.818,119.378 " stroke="black" fill="none" stroke-width="1" />
<polygon points="310.482,326.107 313.004,328.256 317.366,360.482 304.251,372.207 254.226,378.8 232.435,356.976 244.752,345.707 " stroke="black" fill="none" stroke-width="1" />
<polygon points="200.736,113.121 264.909,160.705 266.438,173.267 264.718,181.188 149.36,177.534 146.442,167.757 " stroke="black" fill="none" stroke-width="1" />
<polygon points="400.737,199.196 425.639,209.909 441.791,245.096 430.5,259.84 414.925,262.319 385.436,213.236 " stroke="black" fill="none" stroke-width="1" />
<polygon points="0,0 57.0546,0 53.4373,10.0842 0,39.2875 " stroke="black" fill="none" stroke-width="1" />
<polygon points="157.746,284.138 146.449,313.477 113.236,315.725 80.4443,275.61 83.3145,266.429 127.562,272.774 " stroke="black" fill="none" stroke-width="1" />
<polygon points="131.882,434.179 119.556,425.729 130.535,367.729 165.174,364.357 154.902,439.703 146.951,441.747 " stroke="black" fill="none" stroke-width="1" />
<polygon points="343.768,112.125 374.463,127.704 385.515,155.041 377.496,158.236 345.856,157.291 337.473,143.337 " stroke="black" fill="none" stroke-width="1" />
<polygon points="277.751,458.666 288.116,507.736 285.861,512 249.709,512 236.97,496.828 253.448,459.504 " stroke="black" fill="none" stroke-width="1" />
<polygon points="57.0546,0 145.883,0 147.946,7.86452 119.972,77.546 113.89,83.1418 57.4939,49.8047 53.4373,10.0842 " stroke="black" fill="none" stroke-width="1" />
<polygon points="375.393,216.858 385.436,213.236 414.925,262.319 380.137,275.909 379.237,275.614 " stroke="black" fill="none" stroke-width="1" />
<polygon points="318.553,431.948 277.604,455.651 265.308,432.972 260.711,421.361 296.723,415.125 " stroke="black" fill="none" stroke-width="1" />
<polygon points="54.6378,455.416 51.9133,432.847 75.0634,405.424 119.556,425.729 131.882,434.179 75.1171,463.064 55.5617,457.668 " stroke="black" fill="none" stroke-width="1" />
<polygon points="13.5239,352.421 48.5396,343.353 59.1546,361.611 60.0705,376.11 25.7897,374.747 " stroke="black" fill="none" stroke-width="1" />
<polygon points="0,152.911 45.4105,146.159 72.023,172.467 64.9005,189.013 44.8818,206.059 0,205.381 " stroke="black" fill="none" stroke-width="1" />
<polygon points="400.848,342.318 401.519,349.678 358.864,375.98 371.13,344.496 " stroke="black" fill="none" stroke-width="1" />
<polygon points="0,205.381 44.8818,206.059 69.3247,250.913 0,252.467 " stroke="black" fill="none" stroke-width="1" />
<polygon points="146.449,313.477 157.746,284.138 195.352,254.366 209.306,257.269 208.671,355.164 203.614,356.731 169.144,360.386 " stroke="black" fill="none" stroke-width="1" />
<polygon points="146.951,441.747 154.902,439.703 195.136,456.462 195.918,456.974 196.687,459.328 171.528,512 119.156,512 119.705,485.265 " stroke="black" fill="none" stroke-width="1" />
<polygon points="0,403.381 25.7897,374.747 60.0705,376.11 75.2706,398.819 75.0634,405.424 51.9133,432.847 0,417.979 " stroke="black" fill="none" stroke-width="1" />
<polygon points="149.653,190.077 173.985,229.877 132.152,248.253 96.0018,243.867 104.823,224.428 " stroke="black" fill="none" stroke-width="1" />
<polygon points="221.827,437.593 226.962,432.954 258.717,420.34 260.711,421.361 265.308,432.972 252.964,457.925 " stroke="black" fill="none" stroke-width="1" />
<polygon points="362.263,468.405 446.165,438.191 452.364,512 386.815,512 " stroke="black" fill="none" stroke-width="1" />
<polygon points="388.885,155.961 422.889,143.304 454.909,165.194 425.639,209.909 400.737,199.196 " stroke="black" fill="none" stroke-width="1" />
<polygon points="299.591,0 351.917,0 328.217,90.5854 287.784,126.776 286.296,127.541 249.948,51.3639 " stroke="black" fill="none" stroke-width="1" />
<polygon points="415.93,326.577 443.242,291.041 459.706,302.225 469.617,319.396 463.47,352.83 456.465,352.847 " stroke="black" fill="none" stroke-width="1" />
<polygon points="64.9005,189.013 72.023,172.467 115.347,155.637 124.171,153.944 146.442,167.757 149.36,177.534 149.653,190.077 104.823,224.428 " stroke="black" fill="none" stroke-width="1" />
<polygon points="0,77.0076 40.387,76.8199 51.3965,103.148 0,121.992 " stroke="black" fill="none" stroke-width="1" />
<polygon points="372.655,275.41 379.237,275.614 380.137,275.909 387.99,306.153 364.161,330.81 327.538,322.818 " stroke="black" fill="none" stroke-width="1" />
<polygon points="468.109,84.1439 470.149,64.0597 483.121,67.6251 512,81.9157 512,150.71 499.543,137.384 " stroke="black" fill="none" stroke-width="1" />
<polygon points="427.685,0 512,0 512,51.1943 483.121,67.6251 470.149,64.0597 " stroke="black" fill="none" stroke-width="1" />
<polygon points="327.538,322.818 364.161,330.81 371.13,344.496 358.864,375.98 353.62,384.694 317.366,360.482 313.004,328.256 " stroke="black" fill="none" stroke-width="1" />
<polygon points="387.99,306.153 407.866,327.675 400.848,342.318 371.13,344.496 364.161,330.81 " stroke="black" fill="none" stroke-width="1" />
<polygon points="147.946,7.86452 145.883,0 299.591,0 249.948,51.3639 214.529,65.3336 " stroke="black" fill="none" stroke-width="1" />
<polygon points="404.991,399.863 412.673,379.449 456.465,352.847 463.47,352.83 508.268,398.575 446.499,436.991 " stroke="black" fill="none" stroke-width="1" />
<polygon points="261.276,277.016 304.804,314.097 310.482,326.107 244.752,345.707 " stroke="black" fill="none" stroke-width="1" />
<polygon points="460.299,165.613 512,154.364 512,210.625 466.479,233.106 " stroke="black" fill="none" stroke-width="1" />
<polygon points="209.306,257.269 244.242,247.605 261.276,277.016 244.752,345.707 232.435,356.976 208.692,355.171 208.671,355.164 " stroke="black" fill="none" stroke-width="1" />
<polygon points="345.171,441.925 363.465,403.167 404.991,399.863 446.499,436.991 446.165,438.191 362.263,468.405 347.925,457.967 " stroke="black" fill="none" stroke-width="1" />
<polygon points="332.364,251.768 372.655,275.41 327.538,322.818 313.004,328.256 310.482,326.107 304.804,314.097 " stroke="black" fill="none" stroke-width="1" />
<polygon points="0,252.467 69.3247,250.913 82.8192,262.065 83.3145,266.429 80.4443,275.61 72.2724,282.88 0,271.809 " stroke="black" fill="none" stroke-width="1" />
<polygon points="0,417.979 51.9133,432.847 54.6378,455.416 0,472.365 " stroke="black" fill="none" stroke-width="1" />
<polygon points="0,39.2875 53.4373,10.0842 57.4939,49.8047 40.387,76.8199 0,77.0076 " stroke="black" fill="none" stroke-width="1" />
<polygon points="56.0907,119.295 56.5674,108.124 110.125,94.534 124.171,153.944 115.347,155.637 " stroke="black" fill="none" stroke-width="1" />
<polygon points="80.926,330.456 106.802,327.705 107.325,352.598 78.0081,345.457 " stroke="black" fill="none" stroke-width="1" />
<polygon points="347.925,457.967 362.263,468.405 386.815,512 285.861,512 288.116,507.736 " stroke="black" fill="none" stroke-width="1" />
<polygon points="113.89,83.1418 119.972,77.546 200.448,107.509 200.736,113.121 146.442,167.757 124.171,153.944 110.125,94.534 " stroke="black" fill="none" stroke-width="1" />
<circle cx="496.999" cy="246.393" r="2" fill="red" />
<circle cx="374.37" cy="195.089" r="2" fill="red" />
<circle cx="26.9723" cy="338.118" r="2" fill="red" />
<circle cx="502.061" cy="470.429" r="2" fill="red" />
<circle cx="18.917" cy="478.309" r="2" fill="red" />
<circle cx="257.147" cy="456.074" r="2" fill="red" />
<circle cx="162.709" cy="73.7398" r="2" fill="red" />
<circle cx="298.006" cy="454.088" r="2" fill="red" />
<circle cx="323.082" cy="149.734" r="2" fill="red" />
<circle cx="495.533" cy="331.329" r="2" fill="red" />
<circle cx="348.46" cy="181.145" r="2" fill="red" />
<circle cx="396.262" cy="114.884" r="2" fill="red" />
<circle cx="204.833" cy="194.601" r="2" fill="red" />
<circle cx="421.442" cy="351.742" r="2" fill="red" />
<circle cx="189.912" cy="404.443" r="2" fill="red" />
<circle cx="250.904" cy="103.186" r="2" fill="red" />
<circle cx="134.853" cy="255.66" r="2" fill="red" />
<circle cx="85.4664" cy="355.035" r="2" fill="red" />
<circle cx="100.782" cy="455.74" r="2" fill="red" />
<circle cx="304.516" cy="274.615" r="2" fill="red" />
<circle cx="86.7673" cy="319.047" r="2" fill="red" />
<circle cx="120.003" cy="394.35" r="2" fill="red" />
<circle cx="70.0047" cy="81.998" r="2" fill="red" />
<circle cx="8.54033" cy="371.411" r="2" fill="red" />
<circle cx="511.357" cy="58.0799" r="2" fill="red" />
<circle cx="209.066" cy="406.071" r="2" fill="red" />
<circle cx="72.1112" cy="138.909" r="2" fill="red" />
<circle cx="69.6867" cy="336.618" r="2" fill="red" />
<circle cx="414.51" cy="300.854" r="2" fill="red" />
<circle cx="199.797" cy="511.013" r="2" fill="red" />
<circle cx="125.085" cy="339.625" r="2" fill="red" />
<circle cx="485.53" cy="295.715" r="2" fill="red" />
<circle cx="470.629" cy="277.937" r="2" fill="red" />
<circle cx="126.956" cy="254.182" r="2" fill="red" />
<circle cx="364.667" cy="235.828" r="2" fill="red" />
<circle cx="34.0387" cy="290.386" r="2" fill="red" />
<circle cx="22.7266" cy="500.003" r="2" fill="red" />
<circle cx="325.451" cy="189.996" r="2" fill="red" />
<circle cx="248.462" cy="458.736" r="2" fill="red" />
<circle cx="84.7399" cy="487.958" r="2" fill="red" />
<circle cx="317.62" cy="401.757" r="2" fill="red" />
<circle cx="281.624" cy="395.443" r="2" fill="red" />
<circle cx="491.34" cy="464.889" r="2" fill="red" />
<circle cx="452.743" cy="202.785" r="2" fill="red" />
<circle cx="76.5532" cy="217.67" r="2" fill="red" />
<circle cx="30.9762" cy="122.555" r="2" fill="red" />
<circle cx="466.511" cy="111.302" r="2" fill="red" />
<circle cx="458.58" cy="127.72" r="2" fill="red" />
<circle cx="401.088" cy="95.8716" r="2" fill="red" />
<circle cx="364.738" cy="104.359" r="2" fill="red" />
<circle cx="329.798" cy="129.585" r="2" fill="red" />
<circle cx="387.857" cy="364.325" r="2" fill="red" />
<circle cx="231.018" cy="400.915" r="2" fill="red" />
<circle cx="441.702" cy="90.6868" r="2" fill="red" />
<circle cx="276.377" cy="355.627" r="2" fill="red" />
<circle cx="205.802" cy="164.013" r="2" fill="red" />
<circle cx="402.567" cy="225.817" r="2" fill="red" />
<circle cx="1.52605" cy="12.8884" r="2" fill="red" />
<circle cx="121.756" cy="290.446" r="2" fill="red" />
<circle cx="130.608" cy="396.357" r="2" fill="red" />
<circle cx="349.879" cy="133.636" r="2" fill="red" />
<circle cx="257.374" cy="462.67" r="2" fill="red" />
<circle cx="91.7304" cy="45.245" r="2" fill="red" />
<circle cx="388.5" cy="234.269" r="2" fill="red" />
<circle cx="289.121" cy="438.738" r="2" fill="red" />
<circle cx="96.1451" cy="446.628" r="2" fill="red" />
<circle cx="32.2244" cy="358.398" r="2" fill="red" />
<circle cx="38.4677" cy="172.941" r="2" fill="red" />
<circle cx="382.298" cy="355.309" r="2" fill="red" />
<circle cx="37.4716" cy="238.968" r="2" fill="red" />
<circle cx="180.211" cy="312.955" r="2" fill="red" />
<circle cx="154.529" cy="489.391" r="2" fill="red" />
<circle cx="30.9059" cy="391.554" r="2" fill="red" />
<circle cx="128.524" cy="241.253" r="2" fill="red" />
<circle cx="251.897" cy="453.477" r="2" fill="red" />
<circle cx="406.076" cy="472.051" r="2" fill="red" />
<circle cx="421.324" cy="182.218" r="2" fill="red" />
<circle cx="289.63" cy="84.7083" r="2" fill="red" />
<circle cx="441.151" cy="321.33" r="2" fill="red" />
<circle cx="94.7426" cy="197.166" r="2" fill="red" />
<circle cx="23.2715" cy="101.54" r="2" fill="red" />
<circle cx="362.241" cy="314.425" r="2" fill="red" />
<circle cx="492.66" cy="95.8632" r="2" fill="red" />
<circle cx="505.752" cy="48.2291" r="2" fill="red" />
<circle cx="355.59" cy="344.905" r="2" fill="red" />
<circle cx="380.602" cy="332.17" r="2" fill="red" />
<circle cx="215.271" cy="12.8411" r="2" fill="red" />
<circle cx="441.303" cy="384.437" r="2" fill="red" />
<circle cx="265.779" cy="320.088" r="2" fill="red" />
<circle cx="474.479" cy="200.795" r="2" fill="red" />
<circle cx="237.677" cy="313.328" r="2" fill="red" />
<circle cx="393.693" cy="437.663" r="2" fill="red" />
<circle cx="334.204" cy="287.743" r="2" fill="red" />
<circle cx="38.0388" cy="264.273" r="2" fill="red" />
<circle cx="12.2318" cy="456.758" r="2" fill="red" />
<circle cx="23.0425" cy="52.26" r="2" fill="red" />
<circle cx="80.8362" cy="124.683" r="2" fill="red" />
<circle cx="89.0359" cy="340.382" r="2" fill="red" />
<circle cx="342.668" cy="507.76" r="2" fill="red" />
<circle cx="149.813" cy="108.375" r="2" fill="red" />
</svg>