<svg width="512" height="512" xmlns="http://www.w3.org/2000/svg">
<polygon points="468.1,232.857 512,211.177 512,275.613 497.387,272.215 460.063,241.013 " stroke="black" fill="none" stroke-width="1" />
<polygon points="390.321,154.971 402.293,198.643 386.923,212.747 376.875,216.37 350.442,210.074 378.955,157.093 386.736,153.992 " stroke="black" fill="none" stroke-width="1" />
<polygon points="0,310.356 46.0867,317.179 47.0269,343.955 12.1809,352.98 0,346.236 " stroke="black" fill="none" stroke-width="1" />
<polygon points="512,440.256 512,512 474.931,512 " stroke="black" fill="none" stroke-width="1" />
<polygon points="0,472.812 53.6866,456.158 54.7629,458.781 51.0047,484.417 0,493.374 " stroke="black" fill="none" stroke-width="1" />
<polygon points="252.943,459.64 265.375,434.511 277.79,457.408 277.933,460.351 253.42,461.195 " stroke="black" fill="none" stroke-width="1" />
<polygon points="119.167,76.1184 147.253,6.15728 214.039,63.8016 199.892,106.174 " stroke="black" fill="none" stroke-width="1" />
<polygon points="277.79,457.408 318.995,433.557 345.907,443.644 348.591,459.282 288.304,509.448 277.933,460.351 " stroke="black" fill="none" stroke-width="1" />
<polygon points="265.032,159.57 286.583,126.152 288.26,125.289 338.393,141.998 346.886,156.135 331.75,168.363 266.569,172.198 " stroke="black" fill="none" stroke-width="1" />
<polygon points="464.96,353.596 471.184,319.745 512,308.28 512,399.311 509.656,399.237 " stroke="black" fill="none" stroke-width="1" />
<polygon points="331.75,168.363 346.886,156.135 378.955,157.093 350.442,210.074 348.065,210.779 " stroke="black" fill="none" stroke-width="1" />
<polygon points="384.309,100.219 424.869,110.514 429.086,118.433 424.154,142.379 390.321,154.971 386.736,153.992 375.574,126.383 " stroke="black" fill="none" stroke-width="1" />
<polygon points="264.839,180.164 266.35,219.727 244.069,247.484 208.644,257.284 194.551,254.352 172.932,229.574 148.385,189.423 148.083,176.466 " stroke="black" fill="none" stroke-width="1" />
<polygon points="402.943,350.686 402.267,343.271 409.417,328.353 417.434,327.26 458.097,353.613 414.061,380.363 " stroke="black" fill="none" stroke-width="1" />
<polygon points="164.286,365.432 168.079,361.638 203.049,357.93 194.541,457.999 153.969,441.1 " stroke="black" fill="none" stroke-width="1" />
<polygon points="214.039,63.8016 250.054,49.5967 286.583,126.152 265.032,159.57 200.164,111.47 199.892,106.174 " stroke="black" fill="none" stroke-width="1" />
<polygon points="130.629,248.156 172.932,229.574 194.551,254.352 156.518,284.462 125.985,272.966 " stroke="black" fill="none" stroke-width="1" />
<polygon points="57.7035,362.319 76.4488,346.258 105.841,353.418 111.177,367.137 74.0081,399.789 58.618,376.796 " stroke="black" fill="none" stroke-width="1" />
<polygon points="130.808,435.414 146.138,443.113 119.013,486.437 74.2941,464.171 " stroke="black" fill="none" stroke-width="1" />
<polygon points="261.353,277.326 244.069,247.484 266.35,219.727 321.625,233.402 333.454,251.746 305.51,314.943 " stroke="black" fill="none" stroke-width="1" />
<polygon points="111.758,316.387 105.315,328.384 79.3894,331.14 56.649,309.035 70.7698,283.057 78.7262,275.979 " stroke="black" fill="none" stroke-width="1" />
<polygon points="73.7959,406.552 74.0081,399.789 111.177,367.137 129.393,368.829 118.4,426.907 " stroke="black" fill="none" stroke-width="1" />
<polygon points="56.6116,48.7921 112.78,81.9946 108.974,93.5108 55.2812,107.136 50.3321,102.373 39.3353,76.0749 " stroke="black" fill="none" stroke-width="1" />
<polygon points="0,346.236 12.1809,352.98 24.521,375.44 0,402.666 " stroke="black" fill="none" stroke-width="1" />
<polygon points="512,51.008 512,80.7733 484.02,66.9274 " stroke="black" fill="none" stroke-width="1" />
<polygon points="203.049,357.93 208,356.395 208.221,356.464 226.604,434.728 221.649,439.205 195.599,458.692 194.541,457.999 " stroke="black" fill="none" stroke-width="1" />
<polygon points="54.8006,118.397 114.105,154.769 70.5287,171.698 44.0263,145.498 " stroke="black" fill="none" stroke-width="1" />
<polygon points="46.0867,317.179 56.649,309.035 79.3894,331.14 76.4488,346.258 57.7035,362.319 47.0269,343.955 " stroke="black" fill="none" stroke-width="1" />
<polygon points="381.544,276.117 416.736,262.37 432.082,259.927 444.956,291.452 417.434,327.26 409.417,328.353 389.51,306.798 " stroke="black" fill="none" stroke-width="1" />
<polygon points="196.251,460.689 236.927,498.555 248.216,512 171.742,512 " stroke="black" fill="none" stroke-width="1" />
<polygon points="105.841,353.418 105.315,328.384 111.758,316.387 145.094,314.131 168.079,361.638 164.286,365.432 129.393,368.829 111.177,367.137 " stroke="black" fill="none" stroke-width="1" />
<polygon points="461.238,302.513 497.387,272.215 512,275.613 512,308.28 471.184,319.745 " stroke="black" fill="none" stroke-width="1" />
<polygon points="460.063,241.013 497.387,272.215 461.238,302.513 444.956,291.452 432.082,259.927 443.557,244.942 " stroke="black" fill="none" stroke-width="1" />
<polygon points="94.2871,243.748 130.629,248.156 125.985,272.966 81.6553,266.61 81.123,261.92 " stroke="black" fill="none" stroke-width="1" />
<polygon points="321.625,233.402 348.065,210.779 350.442,210.074 376.875,216.37 380.766,275.862 374.206,275.66 333.454,251.746 " stroke="black" fill="none" stroke-width="1" />
<polygon points="0,272.216 70.7698,283.057 56.649,309.035 46.0867,317.179 0,310.356 " stroke="black" fill="none" stroke-width="1" />
<polygon points="0,493.374 51.0047,484.417 56.362,512 0,512 " stroke="black" fill="none" stroke-width="1" />
<polygon points="264.839,180.164 266.569,172.198 331.75,168.363 348.065,210.779 321.625,233.402 266.35,219.727 " stroke="black" fill="none" stroke-width="1" />
<polygon points="196.251,460.689 195.599,458.692 221.649,439.205 252.943,459.64 253.42,461.195 236.927,498.555 " stroke="black" fill="none" stroke-width="1" />
<polygon points="54.7629,458.781 74.2941,464.171 119.013,486.437 118.488,512 56.362,512 51.0047,484.417 " stroke="black" fill="none" stroke-width="1" />
<polygon points="318.127,361.706 354.678,386.117 364.426,404.408 345.907,443.644 318.995,433.557 297.197,416.759 304.757,373.66 " stroke="black" fill="none" stroke-width="1" />
<polygon points="254.219,380.32 304.757,373.66 297.197,416.759 260.839,423.055 258.722,421.97 " stroke="black" fill="none" stroke-width="1" />
<polygon points="447.033,439.437 447.455,437.922 509.656,399.237 512,399.311 512,440.256 474.931,512 453.127,512 " stroke="black" fill="none" stroke-width="1" />
<polygon points="456.573,164.542 461.882,164.954 468.1,232.857 460.063,241.013 443.557,244.942 427.229,209.37 " stroke="black" fill="none" stroke-width="1" />
<polygon points="63.271,188.558 103.241,224.014 94.2871,243.748 81.123,261.92 67.7622,250.878 43.1414,205.697 " stroke="black" fill="none" stroke-width="1" />
<polygon points="0,120.826 50.3321,102.373 55.2812,107.136 54.8006,118.397 44.0263,145.498 0,152.044 " stroke="black" fill="none" stroke-width="1" />
<polygon points="446.696,110.407 469.215,83.3061 500.587,136.44 " stroke="black" fill="none" stroke-width="1" />
<polygon points="456.573,164.542 424.154,142.379 429.086,118.433 446.696,110.407 500.587,136.44 512,148.649 512,154.05 461.882,164.954 " stroke="black" fill="none" stroke-width="1" />
<polygon points="360.909,0 410.76,0 424.869,110.514 384.309,100.219 " stroke="black" fill="none" stroke-width="1" />
<polygon points="352.191,0 360.909,0 384.309,100.219 375.574,126.383 344.703,110.715 328.938,88.8792 " stroke="black" fill="none" stroke-width="1" />
<polygon points="288.26,125.289 328.938,88.8792 344.703,110.715 338.393,141.998 " stroke="black" fill="none" stroke-width="1" />
<polygon points="402.943,350.686 414.061,380.363 406.266,401.079 364.426,404.408 354.678,386.117 360.104,377.1 " stroke="black" fill="none" stroke-width="1" />
<polygon points="232.221,358.288 254.219,380.32 258.722,421.97 226.604,434.728 208.221,356.464 " stroke="black" fill="none" stroke-width="1" />
<polygon points="424.869,110.514 410.76,0 429.201,0 471.236,63.4139 469.215,83.3061 446.696,110.407 429.086,118.433 " stroke="black" fill="none" stroke-width="1" />
<polygon points="311.25,327.086 313.727,329.196 318.127,361.706 304.757,373.66 254.219,380.32 232.221,358.288 244.603,346.96 " stroke="black" fill="none" stroke-width="1" />
<polygon points="200.164,111.47 265.032,159.57 266.569,172.198 264.839,180.164 148.083,176.466 145.194,166.787 " stroke="black" fill="none" stroke-width="1" />
<polygon points="402.293,198.643 427.229,209.37 443.557,244.942 432.082,259.927 416.736,262.37 386.923,212.747 " stroke="black" fill="none" stroke-width="1" />
<polygon points="0,0 56.0028,0 52.598,9.49195 0,38.2365 " stroke="black" fill="none" stroke-width="1" />
<polygon points="156.518,284.462 145.094,314.131 111.758,316.387 78.7262,275.979 81.6553,266.61 125.985,272.966 " stroke="black" fill="none" stroke-width="1" />
<polygon points="130.808,435.414 118.4,426.907 129.393,368.829 164.286,365.432 153.969,441.1 146.138,443.113 " stroke="black" fill="none" stroke-width="1" />
<polygon points="375.574,126.383 386.736,153.992 378.955,157.093 346.886,156.135 338.393,141.998 344.703,110.715 " stroke="black" fill="none" stroke-width="1" />
<polygon points="277.933,460.351 288.304,509.448 286.955,512 248.216,512 236.927,498.555 253.42,461.195 " stroke="black" fill="none" stroke-width="1" />
<polygon points="56.0028,0 145.638,0 147.253,6.15728 119.167,76.1184 112.78,81.9946 56.6116,48.7921 52.598,9.49195 " stroke="black" fill="none" stroke-width="1" />
<polygon points="376.875,216.37 386.923,212.747 416.736,262.37 381.544,276.117 380.766,275.862 " stroke="black" fill="none" stroke-width="1" />
<polygon points="318.995,433.557 277.79,457.408 265.375,434.511 260.839,423.055 297.197,416.759 " stroke="black" fill="none" stroke-width="1" />
<polygon points="53.6866,456.158 50.9633,433.599 73.7959,406.552 118.4,426.907 130.808,435.414 74.2941,464.171 54.7629,458.781 " stroke="black" fill="none" stroke-width="1" />
<polygon points="12.1809,352.98 47.0269,343.955 57.7035,362.319 58.618,376.796 24.521,375.44 " stroke="black" fill="none" stroke-width="1" />
<polygon points="0,152.044 44.0263,145.498 70.5287,171.698 63.271,188.558 43.1414,205.697 0,205.046 " stroke="black" fill="none" stroke-width="1" />
<polygon points="402.267,343.271 402.943,350.686 360.104,377.1 372.432,345.457 " stroke="black" fill="none" stroke-width="1" />
<polygon points="0,205.046 43.1414,205.697 67.7622,250.878 0,252.397 " stroke="black" fill="none" stroke-width="1" />
<polygon points="145.094,314.131 156.518,284.462 194.551,254.352 208.644,257.284 208,356.395 203.049,357.93 168.079,361.638 " stroke="black" fill="none" stroke-width="1" />
<polygon points="146.138,443.113 153.969,441.1 194.541,457.999 195.599,458.692 196.251,460.689 171.742,512 118.488,512 119.013,486.437 " stroke="black" fill="none" stroke-width="1" />
<polygon points="0,402.666 24.521,375.44 58.618,376.796 74.0081,399.789 73.7959,406.552 50.9633,433.599 0,419.003 " stroke="black" fill="none" stroke-width="1" />
<polygon points="148.385,189.423 172.932,229.574 130.629,248.156 94.2871,243.748 103.241,224.014 " stroke="black" fill="none" stroke-width="1" />
<polygon points="221.649,439.205 226.604,434.728 258.722,421.97 260.839,423.055 265.375,434.511 252.943,459.64 " stroke="black" fill="none" stroke-width="1" />
<polygon points="362.933,469.722 447.033,439.437 453.127,512 386.743,512 " stroke="black" fill="none" stroke-width="1" />
<polygon points="390.321,154.971 424.154,142.379 456.573,164.542 427.229,209.37 402.293,198.643 " stroke="black" fill="none" stroke-width="1" />
<polygon points="297.99,0 352.191,0 328.938,88.8792 288.26,125.289 286.583,126.152 250.054,49.5967 " stroke="black" fill="none" stroke-width="1" />
<polygon points="417.434,327.26 444.956,291.452 461.238,302.513 471.184,319.745 464.96,353.596 458.097,353.613 " stroke="black" fill="none" stroke-width="1" />
<polygon points="63.271,188.558 70.5287,171.698 114.105,154.769 123.051,153.053 145.194,166.787 148.083,176.466 148.385,189.423 103.241,224.014 " stroke="black" fill="none" stroke-width="1" />
<polygon points="0,76.2577 39.3353,76.0749 50.3321,102.373 0,120.826 " stroke="black" fill="none" stroke-width="1" />
<polygon points="374.206,275.66 380.766,275.862 381.544,276.117 389.51,306.798 365.433,331.712 328.527,323.658 " stroke="black" fill="none" stroke-width="1" />
<polygon points="469.215,83.3061 471.236,63.4139 484.02,66.9274 512,80.7733 512,148.649 500.587,136.44 " stroke="black" fill="none" stroke-width="1" />
<polygon points="429.201,0 512,0 512,51.008 484.02,66.9274 471.236,63.4139 " stroke="black" fill="none" stroke-width="1" />
<polygon points="328.527,323.658 365.433,331.712 372.432,345.457 360.104,377.1 354.678,386.117 318.127,361.706 313.727,329.196 " stroke="black" fill="none" stroke-width="1" />
<polygon points="389.51,306.798 409.417,328.353 402.267,343.271 372.432,345.457 365.433,331.712 " stroke="black" fill="none" stroke-width="1" />
<polygon points="147.253,6.15728 145.638,0 297.99,0 250.054,49.5967 214.039,63.8016 " stroke="black" fill="none" stroke-width="1" />
<polygon points="406.266,401.079 414.061,380.363 458.097,353.613 464.96,353.596 509.656,399.237 447.455,437.922 " stroke="black" fill="none" stroke-width="1" />
<polygon points="261.353,277.326 305.51,314.943 311.25,327.086 244.603,346.96 " stroke="black" fill="none" stroke-width="1" />
<polygon points="461.882,164.954 512,154.05 512,211.177 468.1,232.857 " stroke="black" fill="none" stroke-width="1" />
<polygon points="208.644,257.284 244.069,247.484 261.353,277.326 244.603,346.96 232.221,358.288 208.221,356.464 208,356.395 " stroke="black" fill="none" stroke-width="1" />
<polygon points="345.907,443.644 364.426,404.408 406.266,401.079 447.455,437.922 447.033,439.437 362.933,469.722 348.591,459.282 " stroke="black" fill="none" stroke-width="1" />
<polygon points="333.454,251.746 374.206,275.66 328.527,323.658 313.727,329.196 311.25,327.086 305.51,314.943 " stroke="black" fill="none" stroke-width="1" />
<polygon points="0,252.397 67.7622,250.878 81.123,261.92 81.6553,266.61 78.7262,275.979 70.7698,283.057 0,272.216 " stroke="black" fill="none" stroke-width="1" />
<polygon points="0,419.003 50.9633,433.599 53.6866,456.158 0,472.812 " stroke="black" fill="none" stroke-width="1" />
<polygon points="0,38.2365 52.598,9.49195 56.6116,48.7921 39.3353,76.0749 0,76.2577 " stroke="black" fill="none" stroke-width="1" />
<polygon points="54.8006,118.397 55.2812,107.136 108.974,93.5108 123.051,153.053 114.105,154.769 " stroke="black" fill="none" stroke-width="1" />
<polygon points="79.3894,331.14 105.315,328.384 105.841,353.418 76.4488,346.258 " stroke="black" fill="none" stroke-width="1" />
<polygon points="348.591,459.282 362.933,469.722 386.743,512 286.955,512 288.304,509.448 " stroke="black" fill="none" stroke-width="1" />
<polygon points="112.78,81.9946 119.167,76.1184 199.892,106.174 200.164,111.47 145.194,166.787 123.051,153.053 108.974,93.5108 " stroke="black" fill="none" stroke-width="1" />
<circle cx="496.999" cy="246.393" r="20.5305" fill="blue" fill-opacity="0.5" stroke="black" stroke-width="1" />
<circle cx="374.37" cy="195.089" r="27.9532" fill="blue" fill-opacity="0.5" stroke="black" stroke-width="1" />
<circle cx="26.9723" cy="338.118" r="20.3707" fill="blue" fill-opacity="0.5" stroke="black" stroke-width="1" />
<circle cx="502.061" cy="470.429" r="14.1967" fill="blue" fill-opacity="0.5" stroke="black" stroke-width="1" />
<circle cx="18.917" cy="478.309" r="14.2941" fill="blue" fill-opacity="0.5" stroke="black" stroke-width="1" />
<circle cx="257.147" cy="456.074" r="23.5782" fill="blue" fill-opacity="0.5" stroke="black" stroke-width="1" />
<circle cx="162.709" cy="73.7398" r="23.2405" fill="blue" fill-opacity="0.5" stroke="black" stroke-width="1" />
<circle cx="298.006" cy="454.088" r="23.404" fill="blue" fill-opacity="0.5" stroke="black" stroke-width="1" />
<circle cx="323.082" cy="149.734" r="28.3676" fill="blue" fill-opacity="0.5" stroke="black" stroke-width="1" />
<circle cx="495.533" cy="331.329" r="19.7805" fill="blue" fill-opacity="0.5" stroke="black" stroke-width="1" />
<circle cx="348.46" cy="181.145" r="28.7249" fill="blue" fill-opacity="0.5" stroke="black" stroke-width="1" />
<circle cx="396.262" cy="114.884" r="23.6582" fill="blue" fill-opacity="0.5" stroke="black" stroke-width="1" />
<circle cx="204.833" cy="194.601" r="30.4778" fill="blue" fill-opacity="0.5" stroke="black" stroke-width="1" />
<circle cx="421.442" cy="351.742" r="24.2151" fill="blue" fill-opacity="0.5" stroke="black" stroke-width="1" />
<circle cx="189.912" cy="404.443" r="26.1617" fill="blue" fill-opacity="0.5" stroke="black" stroke-width="1" />
<circle cx="250.904" cy="103.186" r="26.7725" fill="blue" fill-opacity="0.5" stroke="black" stroke-width="1" />
<circle cx="134.853" cy="255.66" r="28.6101" fill="blue" fill-opacity="0.5" stroke="black" stroke-width="1" />
<circle cx="85.4664" cy="355.035" r="23.7844" fill="blue" fill-opacity="0.5" stroke="black" stroke-width="1" />
<circle cx="100.782" cy="455.74" r="19.6394" fill="blue" fill-opacity="0.5" stroke="black" stroke-width="1" />
<circle cx="304.516" cy="274.615" r="31.3475" fill="blue" fill-opacity="0.5" stroke="black" stroke-width="1" />
<circle cx="86.7673" cy="319.047" r="24.9508" fill="blue" fill-opacity="0.5" stroke="black" stroke-width="1" />
<circle cx="120.003" cy="394.35" r="24.0131" fill="blue" fill-opacity="0.5" stroke="black" stroke-width="1" />
<circle cx="70.0047" cy="81.998" r="19.5077" fill="blue" fill-opacity="0.5" stroke="black" stroke-width="1" />
<circle cx="8.54033" cy="371.411" r="18.1182" fill="blue" fill-opacity="0.5" stroke="black" stroke-width="1" />
<circle cx="511.357" cy="58.0799" r="14.4311" fill="blue" fill-opacity="0.5" stroke="black" stroke-width="1" />
<circle cx="209.066" cy="406.071" r="26.499" fill="blue" fill-opacity="0.5" stroke="black" stroke-width="1" />
<circle cx="72.1112" cy="138.909" r="22.2679" fill="blue" fill-opacity="0.5" stroke="black" stroke-width="1" />
<circle cx="69.6867" cy="336.618" r="23.3667" fill="blue" fill-opacity="0.5" stroke="black" stroke-width="1" />
<circle cx="414.51" cy="300.854" r="26.0155" fill="blue" fill-opacity="0.5" stroke="black" stroke-width="1" />
<circle cx="199.797" cy="511.013" r="19.0198" fill="blue" fill-opacity="0.5" stroke="black" stroke-width="1" />
<circle cx="125.085" cy="339.625" r="26.619" fill="blue" fill-opacity="0.5" stroke="black" stroke-width="1" />
<circle cx="485.53" cy="295.715" r="21.1524" fill="blue" fill-opacity="0.5" stroke="black" stroke-width="1" />
<circle cx="470.629" cy="277.937" r="22.4347" fill="blue" fill-opacity="0.5" stroke="black" stroke-width="1" />
<circle cx="126.956" cy="254.182" r="28.1814" fill="blue" fill-opacity="0.5" stroke="black" stroke-width="1" />
<circle cx="364.667" cy="235.828" r="29.1525" fill="blue" fill-opacity="0.5" stroke="black" stroke-width="1" />
<circle cx="34.0387" cy="290.386" r="21.7767" fill="blue" fill-opacity="0.5" stroke="black" stroke-width="1" />
<circle cx="22.7266" cy="500.003" r="13.4145" fill="blue" fill-opacity="0.5" stroke="black" stroke-width="1" />
<circle cx="325.451" cy="189.996" r="29.8355" fill="blue" fill-opacity="0.5" stroke="black" stroke-width="1" />
<circle cx="248.462" cy="458.736" r="23.3762" fill="blue" fill-opacity="0.5" stroke="black" stroke-width="1" />
<circle cx="84.7399" cy="487.958" r="16.9704" fill="blue" fill-opacity="0.5" stroke="black" stroke-width="1" />
<circle cx="317.62" cy="401.757" r="26.4347" fill="blue" fill-opacity="0.5" stroke="black" stroke-width="1" />
<circle cx="281.624" cy="395.443" r="27.4503" fill="blue" fill-opacity="0.5" stroke="black" stroke-width="1" />
<circle cx="491.34" cy="464.889" r="15.0334" fill="blue" fill-opacity="0.5" stroke="black" stroke-width="1" />
<circle cx="452.743" cy="202.785" r="23.3084" fill="blue" fill-opacity="0.5" stroke="black" stroke-width="1" />
<circle cx="76.5532" cy="217.67" r="24.7506" fill="blue" fill-opacity="0.5" stroke="black" stroke-width="1" />
<circle cx="30.9762" cy="122.555" r="18.9832" fill="blue" fill-opacity="0.5" stroke="black" stroke-width="1" />
<circle cx="466.511" cy="111.302" r="19.451" fill="blue" fill-opacity="0.5" stroke="black" stroke-width="1" />
<circle cx="458.58" cy="127.72" r="20.637" fill="blue" fill-opacity="0.5" stroke="black" stroke-width="1" />
<circle cx="401.088" cy="95.8716" r="22.41" fill="blue" fill-opacity="0.5" stroke="black" stroke-width="1" />
<circle cx="364.738" cy="104.359" r="24.5347" fill="blue" fill-opacity="0.5" stroke="black" stroke-width="1" />
<circle cx="329.798" cy="129.585" r="27.1741" fill="blue" fill-opacity="0.5" stroke="black" stroke-width="1" />
<circle cx="387.857" cy="364.325" r="25.6249" fill="blue" fill-opacity="0.5" stroke="black" stroke-width="1" />
<circle cx="231.018" cy="400.915" r="27.1331" fill="blue" fill-opacity="0.5" stroke="black" stroke-width="1" />
<circle cx="441.702" cy="90.6868" r="19.9681" fill="blue" fill-opacity="0.5" stroke="black" stroke-width="1" />
<circle cx="276.377" cy="355.627" r="29.5724" fill="blue" fill-opacity="0.5" stroke="black" stroke-width="1" />
<circle cx="205.802" cy="164.013" r="29.4282" fill="blue" fill-opacity="0.5" stroke="black" stroke-width="1" />
<circle cx="402.567" cy="225.817" r="26.9745" fill="blue" fill-opacity="0.5" stroke="black" stroke-width="1" />
<circle cx="1.52605" cy="12.8884" r="12.438" fill="blue" fill-opacity="0.5" stroke="black" stroke-width="1" />
<circle cx="121.756" cy="290.446" r="27.638" fill="blue" fill-opacity="0.5" stroke="black" stroke-width="1" />
<circle cx="130.608" cy="396.357" r="24.4219" fill="blue" fill-opacity="0.5" stroke="black" stroke-width="1" />
<circle cx="349.879" cy="133.636" r="26.6892" fill="blue" fill-opacity="0.5" stroke="black" stroke-width="1" />
<circle cx="257.374" cy="462.67" r="23.1004" fill="blue" fill-opacity="0.5" stroke="black" stroke-width="1" />
<circle cx="91.7304" cy="45.245" r="18.5595" fill="blue" fill-opacity="0.5" stroke="black" stroke-width="1" />
<circle cx="388.5" cy="234.269" r="27.8878" fill="blue" fill-opacity="0.5" stroke="black" stroke-width="1" />
<circle cx="289.121" cy="438.738" r="24.5963" fill="blue" fill-opacity="0.5" stroke="black" stroke-width="1" />
<circle cx="96.1451" cy="446.628" r="19.956" fill="blue" fill-opacity="0.5" stroke="black" stroke-width="1" />
<circle cx="32.2244" cy="358.398" r="20.1598" fill="blue" fill-opacity="0.5" stroke="black" stroke-width="1" />
<circle cx="38.4677" cy="172.941" r="21.1592" fill="blue" fill-opacity="0.5" stroke="black" stroke-width="1" />
<circle cx="382.298" cy="355.309" r="26.2797" fill="blue" fill-opacity="0.5" stroke="black" stroke-width="1" />
<circle cx="37.4716" cy="238.968" r="22.1798" fill="blue" fill-opacity="0.5" stroke="black" stroke-width="1" />
<circle cx="180.211" cy="312.955" r="29.8792" fill="blue" fill-opacity="0.5" stroke="black" stroke-width="1" />
<circle cx="154.529" cy="489.391" r="19.5231" fill="blue" fill-opacity="0.5" stroke="black" stroke-width="1" />
<circle cx="30.9059" cy="391.554" r="18.8966" fill="blue" fill-opacity="0.5" stroke="black" stroke-width="1" />
<circle cx="128.524" cy="241.253" r="28.2219" fill="blue" fill-opacity="0.5" stroke="black" stroke-width="1" />
<circle cx="251.897" cy="453.477" r="23.7619" fill="blue" fill-opacity="0.5" stroke="black" stroke-width="1" />
<circle cx="406.076" cy="472.051" r="18.8738" fill="blue" fill-opacity="0.5" stroke="black" stroke-width="1" />
<circle cx="421.324" cy="182.218" r="24.9202" fill="blue" fill-opacity="0.5" stroke="black" stroke-width="1" />
<circle cx="289.63" cy="84.7083" r="25.3621" fill="blue" fill-opacity="0.5" stroke="black" stroke-width="1" />
<circle cx="441.151" cy="321.33" r="23.8463" fill="blue" fill-opacity="0.5" stroke="black" stroke-width="1" />
<circle cx="94.7426" cy="197.166" r="25.5575" fill="blue" fill-opacity="0.5" stroke="black" stroke-width="1" />
<circle cx="23.2715" cy="101.54" r="17.6456" fill="blue" fill-opacity="0.5" stroke="black" stroke-width="1" />
<circle cx="362.241" cy="314.425" r="28.6049" fill="blue" fill-opacity="0.5" stroke="black" stroke-width="1" />
<circle cx="492.66" cy="95.8632" r="17.1634" fill="blue" fill-opacity="0.5" stroke="black" stroke-width="1" />
<circle cx="505.752" cy="48.2291" r="14.3033" fill="blue" fill-opacity="0.5" stroke="black" stroke-width="1" />
<circle cx="355.59" cy="344.905" r="27.9317" fill="blue" fill-opacity="0.5" stroke="black" stroke-width="1" />
<circle cx="380.602" cy="332.17" r="27.1946" fill="blue" fill-opacity="0.5" stroke="black" stroke-width="1" />
<circle cx="215.271" cy="12.8411" r="20.1254" fill="blue" fill-opacity="0.5" stroke="black" stroke-width="1" />
<circle cx="441.303" cy="384.437" r="21.7129" fill="blue" fill-opacity="0.5" stroke="black" stroke-width="1" />
<circle cx="265.779" cy="320.088" r="30.9902" fill="blue" fill-opacity="0.5" stroke="black" stroke-width="1" />
<circle cx="474.479" cy="200.795" r="21.7216" fill="blue" fill-opacity="0.5" stroke="black" stroke-width="1" />
<circle cx="237.677" cy="313.328" r="31.1278" fill="blue" fill-opacity="0.5" stroke="black" stroke-width="1" />
<circle cx="393.693" cy="437.663" r="21.527" fill="blue" fill-opacity="0.5" stroke="black" stroke-width="1" />
<circle cx="334.204" cy="287.743" r="30.3073" fill="blue" fill-opacity="0.5" stroke="black" stroke-width="1" />
<circle cx="38.0388" cy="264.273" r="22.2594" fill="blue" fill-opacity="0.5" stroke="black" stroke-width="1" />
<circle cx="12.2318" cy="456.758" r="14.9525" fill="blue" fill-opacity="0.5" stroke="black" stroke-width="1" />
<circle cx="23.0425" cy="52.26" r="15.4097" fill="blue" fill-opacity="0.5" stroke="black" stroke-width="1" />
<circle cx="80.8362" cy="124.683" r="22.1998" fill="blue" fill-opacity="0.5" stroke="black" stroke-width="1" />
<circle cx="89.0359" cy="340.382" r="24.5013" fill="blue" fill-opacity="0.5" stroke="black" stroke-width="1" />
<circle cx="342.668" cy="507.76" r="18.6315" fill="blue" fill-opacity="0.5" stroke="black" stroke-width="1" />
<circle cx="149.813" cy="108.375" r="24.8645" fill="blue" fill-opacity="0.5" stroke="black" stroke-width="1" />
</svg>