<svg width="512" height="512" xmlns="http://www.w3.org/2000/svg">
<polygon points="471.187,199.463 512,198.988 512,255.439 474.482,255.934 455.858,219.333 " stroke="black" fill="none" stroke-width="1" />
<polygon points="337.67,150.414 362.599,149.751 383.898,183.204 364.974,208.726 338.221,209.201 318.841,175.279 " stroke="black" fill="none" stroke-width="1" />
<polygon points="0,280.909 38.2198,281.028 55.021,308.691 37.6017,337.842 0,337.572 " stroke="black" fill="none" stroke-width="1" />
<polygon points="460.06,462.813 482.231,444.554 512,445.642 512,512 467.11,512 " stroke="black" fill="none" stroke-width="1" />
<polygon points="51.093,469.577 94.3901,466.936 100.917,512 44.0059,512 " stroke="black" fill="none" stroke-width="1" />
<polygon points="317.365,403.501 332.116,424.796 322.563,457.072 303.986,465.732 282.71,456.56 273.524,421.417 286.84,403.595 " stroke="black" fill="none" stroke-width="1" />
<polygon points="177.613,33.6293 176.989,0 238.209,0 237.343,35.2292 209.791,56.9014 " stroke="black" fill="none" stroke-width="1" />
<polygon points="322.563,457.072 356.617,477 356.116,512 303.516,512 303.986,465.732 " stroke="black" fill="none" stroke-width="1" />
<polygon points="265.804,88.9034 292.66,114.734 274.563,148.617 244.044,148.911 229.756,127.073 240.494,97.2008 " stroke="black" fill="none" stroke-width="1" />
<polygon points="457.086,340.86 477.33,315.532 512,315.128 512,377.668 479.787,378.416 " stroke="black" fill="none" stroke-width="1" />
<polygon points="292.66,114.734 315.63,111.715 337.67,150.414 318.841,175.279 293.06,175.45 274.563,148.617 " stroke="black" fill="none" stroke-width="1" />
<polygon points="366.012,94.1996 379.402,59.2997 402.359,52.124 414.637,58.5406 424.876,103.062 406.959,120.25 383.756,119.614 " stroke="black" fill="none" stroke-width="1" />
<polygon points="180.255,200.587 194.731,178.434 229.13,178.364 244.131,204.306 227.781,232.03 195.519,231.578 " stroke="black" fill="none" stroke-width="1" />
<polygon points="416.816,358.832 431.954,341.51 457.086,340.86 479.787,378.416 460.003,401.289 430.078,402.686 " stroke="black" fill="none" stroke-width="1" />
<polygon points="177.923,366.176 194.678,342.273 224.454,342.994 239.936,369.195 222.08,401.147 193.492,399.548 " stroke="black" fill="none" stroke-width="1" />
<polygon points="237.343,35.2292 274.356,57.4312 265.804,88.9034 240.494,97.2008 209.577,70.345 209.791,56.9014 " stroke="black" fill="none" stroke-width="1" />
<polygon points="132.194,225.807 148.527,200.758 180.255,200.587 195.519,231.578 179.622,256.048 148.507,255.817 " stroke="black" fill="none" stroke-width="1" />
<polygon points="100.207,393.527 84.0731,364.552 101.107,337.525 131.125,338.03 146.75,365.467 129.691,394.433 " stroke="black" fill="none" stroke-width="1" />
<polygon points="125.974,452.047 143.594,417.178 176.329,420.02 187.532,457.429 149.703,473.112 " stroke="black" fill="none" stroke-width="1" />
<polygon points="243.099,259.845 227.781,232.03 244.131,204.306 274.65,204.881 291.458,233.888 274.046,260.581 " stroke="black" fill="none" stroke-width="1" />
<polygon points="38.4713,224.502 55.4629,197.062 85.3999,197.231 102.135,225.733 85.2134,253.11 55.3297,252.961 " stroke="black" fill="none" stroke-width="1" />
<polygon points="83.598,418.295 100.207,393.527 129.691,394.433 143.594,417.178 125.974,452.047 103.233,455.032 " stroke="black" fill="none" stroke-width="1" />
<polygon points="90.3638,87.0507 99.4815,53.8524 118.32,43.5601 145.835,56.8317 152.431,86.8836 129.958,109.779 105.952,108.208 " stroke="black" fill="none" stroke-width="1" />
<polygon points="0,337.572 37.6017,337.842 54.2853,364.043 36.6563,395.263 0,395.214 " stroke="black" fill="none" stroke-width="1" />
<polygon points="463.673,50.1304 512,43.1761 512,96.6251 469.858,94.3678 " stroke="black" fill="none" stroke-width="1" />
<polygon points="222.08,401.147 235.048,420.394 223.707,455.397 199.515,463.588 187.532,457.429 176.329,420.02 193.492,399.548 " stroke="black" fill="none" stroke-width="1" />
<polygon points="52.8402,90.0398 90.3638,87.0507 105.952,108.208 85.8518,141.952 56.0402,140.905 40.0249,111.162 " stroke="black" fill="none" stroke-width="1" />
<polygon points="85.2134,253.11 101.743,281.73 84.7856,309.002 55.021,308.691 38.2198,281.028 55.3297,252.961 " stroke="black" fill="none" stroke-width="1" />
<polygon points="384.112,302.465 367.451,266.417 384.432,243.823 410.923,242.939 430.983,280.459 413.738,301.909 " stroke="black" fill="none" stroke-width="1" />
<polygon points="223.707,455.397 252.062,474.872 251.468,512 200.891,512 199.515,463.588 " stroke="black" fill="none" stroke-width="1" />
<polygon points="178.752,311.357 194.678,342.273 177.923,366.176 146.75,365.467 131.125,338.03 147.961,310.943 " stroke="black" fill="none" stroke-width="1" />
<polygon points="456.369,279.588 474.482,255.934 512,255.439 512,315.128 477.33,315.532 " stroke="black" fill="none" stroke-width="1" />
<polygon points="455.858,219.333 474.482,255.934 456.369,279.588 430.983,280.459 410.923,242.939 428.608,220.38 " stroke="black" fill="none" stroke-width="1" />
<polygon points="131.757,168.884 148.527,200.758 132.194,225.807 102.135,225.733 85.3999,197.231 102.738,168.915 " stroke="black" fill="none" stroke-width="1" />
<polygon points="293.06,175.45 318.841,175.279 338.221,209.201 320.35,234.181 291.458,233.888 274.65,204.881 " stroke="black" fill="none" stroke-width="1" />
<polygon points="0,224.454 38.4713,224.502 55.3297,252.961 38.2198,281.028 0,280.909 " stroke="black" fill="none" stroke-width="1" />
<polygon points="0,453.745 38.1774,453.44 51.093,469.577 44.0059,512 0,512 " stroke="black" fill="none" stroke-width="1" />
<polygon points="229.13,178.364 244.044,148.911 274.563,148.617 293.06,175.45 274.65,204.881 244.131,204.306 " stroke="black" fill="none" stroke-width="1" />
<polygon points="273.524,421.417 282.71,456.56 252.062,474.872 223.707,455.397 235.048,420.394 " stroke="black" fill="none" stroke-width="1" />
<polygon points="94.3901,466.936 103.233,455.032 125.974,452.047 149.703,473.112 146.651,512 100.917,512 " stroke="black" fill="none" stroke-width="1" />
<polygon points="317.365,403.501 333.304,373.7 369.461,374.936 379.933,413.034 373.258,422.066 332.116,424.796 " stroke="black" fill="none" stroke-width="1" />
<polygon points="288.158,346.224 319.207,347.28 333.304,373.7 317.365,403.501 286.84,403.595 271.55,370.184 " stroke="black" fill="none" stroke-width="1" />
<polygon points="479.787,378.416 512,377.668 512,445.642 482.231,444.554 460.003,401.289 " stroke="black" fill="none" stroke-width="1" />
<polygon points="425.435,161.568 456.073,160.686 471.187,199.463 455.858,219.333 428.608,220.38 408.266,182.332 " stroke="black" fill="none" stroke-width="1" />
<polygon points="105.952,108.208 129.958,109.779 147.814,146.069 131.757,168.884 102.738,168.915 85.8518,141.952 " stroke="black" fill="none" stroke-width="1" />
<polygon points="0,52.1901 37.9564,55.7426 52.8402,90.0398 40.0249,111.162 0,112.217 " stroke="black" fill="none" stroke-width="1" />
<polygon points="414.637,58.5406 457.045,45.2716 463.673,50.1304 469.858,94.3678 458.173,106.058 424.876,103.062 " stroke="black" fill="none" stroke-width="1" />
<polygon points="406.959,120.25 424.876,103.062 458.173,106.058 468.006,146.096 456.073,160.686 425.435,161.568 " stroke="black" fill="none" stroke-width="1" />
<polygon points="349.229,0 402.948,0 402.359,52.124 379.402,59.2997 348.429,38.1538 " stroke="black" fill="none" stroke-width="1" />
<polygon points="318.011,57.0517 348.429,38.1538 379.402,59.2997 366.012,94.1996 327.628,95.573 " stroke="black" fill="none" stroke-width="1" />
<polygon points="274.356,57.4312 293.666,47.2457 318.011,57.0517 327.628,95.573 315.63,111.715 292.66,114.734 265.804,88.9034 " stroke="black" fill="none" stroke-width="1" />
<polygon points="369.461,374.936 382.307,358.503 416.816,358.832 430.078,402.686 422.197,411.339 379.933,413.034 " stroke="black" fill="none" stroke-width="1" />
<polygon points="178.752,311.357 195.272,286.355 226.3,286.966 241.746,314.906 224.454,342.994 194.678,342.273 " stroke="black" fill="none" stroke-width="1" />
<polygon points="402.359,52.124 402.948,0 454.105,0 457.045,45.2716 414.637,58.5406 " stroke="black" fill="none" stroke-width="1" />
<polygon points="224.454,342.994 241.746,314.906 272.917,315.814 288.158,346.224 271.55,370.184 239.936,369.195 " stroke="black" fill="none" stroke-width="1" />
<polygon points="191.657,128.203 229.756,127.073 244.044,148.911 229.13,178.364 194.731,178.434 180.222,144.983 " stroke="black" fill="none" stroke-width="1" />
<polygon points="383.898,183.204 408.266,182.332 428.608,220.38 410.923,242.939 384.432,243.823 364.974,208.726 " stroke="black" fill="none" stroke-width="1" />
<polygon points="58.3268,0 119.605,0 118.32,43.5601 99.4815,53.8524 59.8942,32.3054 " stroke="black" fill="none" stroke-width="1" />
<polygon points="102.135,225.733 132.194,225.807 148.507,255.817 131.874,282 101.743,281.73 85.2134,253.11 " stroke="black" fill="none" stroke-width="1" />
<polygon points="143.594,417.178 129.691,394.433 146.75,365.467 177.923,366.176 193.492,399.548 176.329,420.02 " stroke="black" fill="none" stroke-width="1" />
<polygon points="366.012,94.1996 383.756,119.614 362.599,149.751 337.67,150.414 315.63,111.715 327.628,95.573 " stroke="black" fill="none" stroke-width="1" />
<polygon points="303.986,465.732 303.516,512 251.468,512 252.062,474.872 282.71,456.56 " stroke="black" fill="none" stroke-width="1" />
<polygon points="118.32,43.5601 119.605,0 176.989,0 177.613,33.6293 145.835,56.8317 " stroke="black" fill="none" stroke-width="1" />
<polygon points="320.35,234.181 338.221,209.201 364.974,208.726 384.432,243.823 367.451,266.417 337.353,266.504 " stroke="black" fill="none" stroke-width="1" />
<polygon points="332.116,424.796 373.258,422.066 380.106,459.295 356.617,477 322.563,457.072 " stroke="black" fill="none" stroke-width="1" />
<polygon points="38.1774,453.44 53.6746,419.178 83.598,418.295 103.233,455.032 94.3901,466.936 51.093,469.577 " stroke="black" fill="none" stroke-width="1" />
<polygon points="37.6017,337.842 55.021,308.691 84.7856,309.002 101.107,337.525 84.0731,364.552 54.2853,364.043 " stroke="black" fill="none" stroke-width="1" />
<polygon points="0,112.217 40.0249,111.162 56.0402,140.905 38.768,168.119 0,167.798 " stroke="black" fill="none" stroke-width="1" />
<polygon points="369.112,322.019 382.307,358.503 369.461,374.936 333.304,373.7 319.207,347.28 335.729,321.37 " stroke="black" fill="none" stroke-width="1" />
<polygon points="0,167.798 38.768,168.119 55.4629,197.062 38.4713,224.502 0,224.454 " stroke="black" fill="none" stroke-width="1" />
<polygon points="131.874,282 148.507,255.817 179.622,256.048 195.272,286.355 178.752,311.357 147.961,310.943 " stroke="black" fill="none" stroke-width="1" />
<polygon points="149.703,473.112 187.532,457.429 199.515,463.588 200.891,512 146.651,512 " stroke="black" fill="none" stroke-width="1" />
<polygon points="54.2853,364.043 84.0731,364.552 100.207,393.527 83.598,418.295 53.6746,419.178 36.6563,395.263 " stroke="black" fill="none" stroke-width="1" />
<polygon points="131.757,168.884 147.814,146.069 180.222,144.983 194.731,178.434 180.255,200.587 148.527,200.758 " stroke="black" fill="none" stroke-width="1" />
<polygon points="239.936,369.195 271.55,370.184 286.84,403.595 273.524,421.417 235.048,420.394 222.08,401.147 " stroke="black" fill="none" stroke-width="1" />
<polygon points="409.991,469.42 428.184,455.881 460.06,462.813 467.11,512 411.898,512 " stroke="black" fill="none" stroke-width="1" />
<polygon points="362.599,149.751 383.756,119.614 406.959,120.25 425.435,161.568 408.266,182.332 383.898,183.204 " stroke="black" fill="none" stroke-width="1" />
<polygon points="294.014,0 349.229,0 348.429,38.1538 318.011,57.0517 293.666,47.2457 " stroke="black" fill="none" stroke-width="1" />
<polygon points="430.983,280.459 456.369,279.588 477.33,315.532 457.086,340.86 431.954,341.51 413.738,301.909 " stroke="black" fill="none" stroke-width="1" />
<polygon points="152.431,86.8836 181.526,95.343 191.657,128.203 180.222,144.983 147.814,146.069 129.958,109.779 " stroke="black" fill="none" stroke-width="1" />
<polygon points="37.9564,55.7426 59.8942,32.3054 99.4815,53.8524 90.3638,87.0507 52.8402,90.0398 " stroke="black" fill="none" stroke-width="1" />
<polygon points="320.525,291.087 337.353,266.504 367.451,266.417 384.112,302.465 369.112,322.019 335.729,321.37 " stroke="black" fill="none" stroke-width="1" />
<polygon points="468.006,146.096 458.173,106.058 469.858,94.3678 512,96.6251 512,146.077 " stroke="black" fill="none" stroke-width="1" />
<polygon points="454.105,0 512,0 512,43.1761 463.673,50.1304 457.045,45.2716 " stroke="black" fill="none" stroke-width="1" />
<polygon points="272.917,315.814 289.828,290.401 320.525,291.087 335.729,321.37 319.207,347.28 288.158,346.224 " stroke="black" fill="none" stroke-width="1" />
<polygon points="369.112,322.019 384.112,302.465 413.738,301.909 431.954,341.51 416.816,358.832 382.307,358.503 " stroke="black" fill="none" stroke-width="1" />
<polygon points="238.209,0 294.014,0 293.666,47.2457 274.356,57.4312 237.343,35.2292 " stroke="black" fill="none" stroke-width="1" />
<polygon points="422.197,411.339 430.078,402.686 460.003,401.289 482.231,444.554 460.06,462.813 428.184,455.881 " stroke="black" fill="none" stroke-width="1" />
<polygon points="226.3,286.966 243.099,259.845 274.046,260.581 289.828,290.401 272.917,315.814 241.746,314.906 " stroke="black" fill="none" stroke-width="1" />
<polygon points="456.073,160.686 468.006,146.096 512,146.077 512,198.988 471.187,199.463 " stroke="black" fill="none" stroke-width="1" />
<polygon points="195.519,231.578 227.781,232.03 243.099,259.845 226.3,286.966 195.272,286.355 179.622,256.048 " stroke="black" fill="none" stroke-width="1" />
<polygon points="379.933,413.034 422.197,411.339 428.184,455.881 409.991,469.42 380.106,459.295 373.258,422.066 " stroke="black" fill="none" stroke-width="1" />
<polygon points="291.458,233.888 320.35,234.181 337.353,266.504 320.525,291.087 289.828,290.401 274.046,260.581 " stroke="black" fill="none" stroke-width="1" />
<polygon points="56.0402,140.905 85.8518,141.952 102.738,168.915 85.3999,197.231 55.4629,197.062 38.768,168.119 " stroke="black" fill="none" stroke-width="1" />
<polygon points="0,395.214 36.6563,395.263 53.6746,419.178 38.1774,453.44 0,453.745 " stroke="black" fill="none" stroke-width="1" />
<polygon points="0,0 58.3268,0 59.8942,32.3054 37.9564,55.7426 0,52.1901 " stroke="black" fill="none" stroke-width="1" />
<polygon points="145.835,56.8317 177.613,33.6293 209.791,56.9014 209.577,70.345 181.526,95.343 152.431,86.8836 " stroke="black" fill="none" stroke-width="1" />
<polygon points="84.7856,309.002 101.743,281.73 131.874,282 147.961,310.943 131.125,338.03 101.107,337.525 " stroke="black" fill="none" stroke-width="1" />
<polygon points="380.106,459.295 409.991,469.42 411.898,512 356.116,512 356.617,477 " stroke="black" fill="none" stroke-width="1" />
<polygon points="181.526,95.343 209.577,70.345 240.494,97.2008 229.756,127.073 191.657,128.203 " stroke="black" fill="none" stroke-width="1" />
<circle cx="488.016" cy="226.687" r="2" fill="red" />
<circle cx="351.152" cy="179.691" r="2" fill="red" />
<circle cx="23.5059" cy="309.247" r="2" fill="red" />
<circle cx="488.472" cy="479.283" r="2" fill="red" />
<circle cx="72.8816" cy="491.113" r="2" fill="red" />
<circle cx="302.672" cy="432.37" r="2" fill="red" />
<circle cx="207.891" cy="23.1732" r="2" fill="red" />
<circle cx="328.694" cy="488.189" r="2" fill="red" />
<circle cx="259.868" cy="120.823" r="2" fill="red" />
<circle cx="489.496" cy="345.973" r="2" fill="red" />
<circle cx="305.834" cy="145.374" r="2" fill="red" />
<circle cx="396.33" cy="87.8209" r="2" fill="red" />
<circle cx="212.076" cy="204.635" r="2" fill="red" />
<circle cx="446.549" cy="371.933" r="2" fill="red" />
<circle cx="208.854" cy="370.918" r="2" fill="red" />
<circle cx="242.123" cy="66.6926" r="2" fill="red" />
<circle cx="164.068" cy="228.281" r="2" fill="red" />
<circle cx="115.496" cy="365.722" r="2" fill="red" />
<circle cx="157.233" cy="444.187" r="2" fill="red" />
<circle cx="259.355" cy="232.518" r="2" fill="red" />
<circle cx="70.3227" cy="225.088" r="2" fill="red" />
<circle cx="113.76" cy="422.218" r="2" fill="red" />
<circle cx="121.083" cy="77.9684" r="2" fill="red" />
<circle cx="23.0971" cy="366.232" r="2" fill="red" />
<circle cx="490.028" cy="70.4323" r="2" fill="red" />
<circle cx="205.565" cy="429.712" r="2" fill="red" />
<circle cx="72.5873" cy="113.699" r="2" fill="red" />
<circle cx="70.045" cy="280.982" r="2" fill="red" />
<circle cx="398.765" cy="273.238" r="2" fill="red" />
<circle cx="224.901" cy="486.82" r="2" fill="red" />
<circle cx="162.916" cy="338.717" r="2" fill="red" />
<circle cx="488.783" cy="284.815" r="2" fill="red" />
<circle cx="442.872" cy="249.657" r="2" fill="red" />
<circle cx="117.073" cy="197.639" r="2" fill="red" />
<circle cx="306.233" cy="205.354" r="2" fill="red" />
<circle cx="23.6813" cy="252.717" r="2" fill="red" />
<circle cx="23.4876" cy="482.861" r="2" fill="red" />
<circle cx="260.407" cy="176.688" r="2" fill="red" />
<circle cx="253.464" cy="445.232" r="2" fill="red" />
<circle cx="121.874" cy="484.017" r="2" fill="red" />
<circle cx="349.556" cy="399.894" r="2" fill="red" />
<circle cx="302.495" cy="374.723" r="2" fill="red" />
<circle cx="490.992" cy="410.373" r="2" fill="red" />
<circle cx="440.583" cy="190.094" r="2" fill="red" />
<circle cx="117.012" cy="140.162" r="2" fill="red" />
<circle cx="22.7347" cy="83.453" r="2" fill="red" />
<circle cx="443.896" cy="76.8823" r="2" fill="red" />
<circle cx="438.918" cy="132.217" r="2" fill="red" />
<circle cx="377.074" cy="26.2154" r="2" fill="red" />
<circle cx="347.742" cy="69.1794" r="2" fill="red" />
<circle cx="297.469" cy="81.7307" r="2" fill="red" />
<circle cx="399.326" cy="386.214" r="2" fill="red" />
<circle cx="210.223" cy="314.347" r="2" fill="red" />
<circle cx="428.224" cy="26.7928" r="2" fill="red" />
<circle cx="256.44" cy="342.801" r="2" fill="red" />
<circle cx="211.97" cy="152.162" r="2" fill="red" />
<circle cx="396.772" cy="213.517" r="2" fill="red" />
<circle cx="90.8576" cy="22.646" r="2" fill="red" />
<circle cx="116.936" cy="253.9" r="2" fill="red" />
<circle cx="161.683" cy="392.924" r="2" fill="red" />
<circle cx="349.577" cy="120.462" r="2" fill="red" />
<circle cx="278.827" cy="487.682" r="2" fill="red" />
<circle cx="146.967" cy="24.3023" r="2" fill="red" />
<circle cx="352.191" cy="238.233" r="2" fill="red" />
<circle cx="352.694" cy="447.176" r="2" fill="red" />
<circle cx="70.1017" cy="445.553" r="2" fill="red" />
<circle cx="69.4619" cy="336.708" r="2" fill="red" />
<circle cx="24.2189" cy="139.744" r="2" fill="red" />
<circle cx="351.307" cy="348.678" r="2" fill="red" />
<circle cx="23.7513" cy="196.25" r="2" fill="red" />
<circle cx="163.658" cy="283.581" r="2" fill="red" />
<circle cx="175.49" cy="488.224" r="2" fill="red" />
<circle cx="68.5187" cy="391.88" r="2" fill="red" />
<circle cx="163.771" cy="173.07" r="2" fill="red" />
<circle cx="254.757" cy="396.57" r="2" fill="red" />
<circle cx="437.419" cy="486.6" r="2" fill="red" />
<circle cx="394.571" cy="152.048" r="2" fill="red" />
<circle cx="320.31" cy="25.0247" r="2" fill="red" />
<circle cx="444.956" cy="310.373" r="2" fill="red" />
<circle cx="161.928" cy="118.061" r="2" fill="red" />
<circle cx="68.5926" cy="63.5523" r="2" fill="red" />
<circle cx="352.356" cy="294.689" r="2" fill="red" />
<circle cx="487.356" cy="120.321" r="2" fill="red" />
<circle cx="483.234" cy="23.2211" r="2" fill="red" />
<circle cx="304.398" cy="318.765" r="2" fill="red" />
<circle cx="399.851" cy="331.122" r="2" fill="red" />
<circle cx="267.352" cy="24.6339" r="2" fill="red" />
<circle cx="449.342" cy="431.771" r="2" fill="red" />
<circle cx="258.038" cy="287.914" r="2" fill="red" />
<circle cx="487.378" cy="171.855" r="2" fill="red" />
<circle cx="211.314" cy="258.973" r="2" fill="red" />
<circle cx="401.411" cy="438.214" r="2" fill="red" />
<circle cx="305.65" cy="262.716" r="2" fill="red" />
<circle cx="70.6373" cy="169.205" r="2" fill="red" />
<circle cx="23.02" cy="424.258" r="2" fill="red" />
<circle cx="28.1411" cy="25.6888" r="2" fill="red" />
<circle cx="177.165" cy="65.6592" r="2" fill="red" />
<circle cx="116.436" cy="309.827" r="2" fill="red" />
<circle cx="384.209" cy="488.984" r="2" fill="red" />
<circle cx="210.513" cy="103.082" r="2" fill="red" />
</svg>